<svg width="478" height="478" viewBox="0 0 478 478" fill="none" xmlns="http://www.w3.org/2000/svg">
<g clip-path="url(#clip0_3059_46)">
<path d="M239 0C107.091 0 0 107.091 0 239C0 370.909 107.091 478 239 478C370.67 478 477.575 371.291 477.962 239.707C477.986 239.472 477.999 239.236 478 239C478 238.788 477.99 238.576 477.971 238.364C477.627 106.747 370.699 0 239 0ZM239 14.34C247.083 14.34 255.061 14.7893 262.929 15.621C262.986 16.6535 261.002 17.3657 254.984 17.1315C251.877 19.8466 252.547 20.3007 240.358 20.707C237.91 31.3472 209.464 25.248 228.039 19.7749C255.027 13.4987 219.388 13.2693 213.288 23.7709C230.602 31.2134 199.455 25.0854 193.805 30.5107C190.373 26.9831 182.802 24.0912 174.489 23.7709C195.42 17.5101 217.152 14.3331 239 14.34ZM410.688 94.0895C417.095 101.69 422.993 109.706 428.341 118.085C428.565 119.854 428.627 121.608 428.408 123.343C431.481 132.607 425.592 123.773 425.439 122.597C417.801 114.691 414.899 104.319 410.688 94.0895ZM71.2029 95.0216C75.6148 94.4002 51.8821 114.084 61.5521 112.024C70.8396 90.9443 75.4427 115.886 61.7576 117.416C50.4768 145.269 76.327 103.076 76.5565 118.219C69.6494 132.984 77.5316 142.315 90.8296 135.465C103.578 130.389 93.3677 143.62 100.705 143.4C110.647 129.729 107.378 144.06 99.185 154.136C86.2408 160.006 73.9562 150.097 65.3139 142.587C55.8495 162.056 48.2923 134.624 54.645 127.052C63.182 124.519 54.9891 119.213 51.6001 115.045C52.9815 112.966 54.4107 110.92 55.8543 108.884C57.3552 107.77 57.8428 106.905 57.7998 106.159C59.5875 103.721 61.4421 101.331 63.3254 98.9699C67.7135 96.3983 70.2325 95.1602 71.2029 95.0216ZM116.962 95.0981C116.431 102.794 138.328 100.323 136.99 114.056C129.595 119.433 123.788 110.471 116.962 109.744C96.3552 116.876 104.18 100.676 116.962 95.0981ZM176.764 96.6181C178.523 96.6803 179.752 97.5455 179.934 99.4479C163.251 104.367 178.375 124.653 177.046 137.64C165.225 141.861 150.436 131.383 166.076 121.914C151.569 111.135 169.145 96.3457 176.764 96.6181ZM405.803 114.572C412.935 113.793 420.798 125.838 427.624 138.314C424.469 116.288 446.347 168.376 437.36 138.505C437.829 137.497 438.144 136.445 438.35 135.37C455.017 167.368 463.701 202.921 463.66 239C463.66 248.957 462.943 258.741 461.691 268.349C458.952 268.76 458.813 293.884 454.21 287.498C450.238 290.873 464.621 260.878 454.1 279.53C437.576 296.69 446.767 267.049 452.972 258.784C457.537 261.27 461.49 256.179 458.89 244.229C457.025 224.823 448.058 218.69 443.498 201.338C435.917 205.043 448.015 230.353 443.737 241.93C440.248 257.035 433.254 292.914 419.091 290.366C411.367 272.498 420.764 306.809 416.859 313.229C419.866 317.679 442.375 322.378 439.359 303.296C447.743 279.812 442.991 300.332 442.308 313.396C453.675 322.191 423.188 334.447 433.795 325.814C425.927 322.727 419.445 331.479 412.724 330.575C406.917 335.637 406.453 326.407 408.996 323.377C426.744 315.184 400.865 318.109 405.105 309.61C407.304 291.045 392.524 278.655 385.316 266.671C382.056 243.56 404.173 260.548 403.183 269.602C426.892 258.995 417.404 227.714 403.007 213.604C412.796 193.236 407.079 216.032 414.479 218.967C416.262 205.736 420.516 198.633 429.378 187.261C435.162 166.817 427.628 145.948 413.078 131.364C420.965 120.939 396.109 117.516 404.388 114.897C404.856 114.73 405.33 114.624 405.803 114.572ZM151.937 174.695C149.853 187.194 178.629 190.732 168.251 198.48C165.493 199.474 162.563 200.607 159.561 199.871C161.119 193.016 137.769 174.403 151.937 174.695ZM92.0963 178.088C94.0226 177.687 96.9575 182.037 96.0828 189.642C99.4288 208.81 106.302 225.946 109.29 244.201C109.577 252.518 105.619 245.061 104.352 242.681C93.4299 227.791 95.4327 207.098 91.7091 188.389C89.7158 181.602 90.5953 178.409 92.0915 178.093M179.044 197.572C191.578 203.872 218.661 195.535 231.577 208.093C240.133 198.423 230.248 223.236 244.75 224.607C260.534 218.609 252.288 234.282 257.962 244.827C266.217 259.645 268.144 282.355 282.943 291.26C296.919 272.226 288.865 312.12 304.481 298.831C307.689 282.713 291.891 270.758 296.69 253.278C305.638 242.8 319.5 232.872 327.043 219.631C339.48 206.821 350.885 216.515 357.601 229.034C356.712 241.438 362.792 245.668 373.074 238.699C378.428 255.046 372.2 276.461 387.3 288.521C399.493 316.613 371.449 276.858 366.181 293.889C377.677 304.787 374.546 315.571 382.467 326.904C390 325.594 397.983 341.263 409.354 340.637C419.66 337.2 434.306 337.74 443.833 331.302C437.639 345.042 430.075 358.123 421.257 370.345C414.22 376.707 408.68 384.202 403.508 391.993C362.51 436.07 304.018 463.66 239 463.66C188.663 463.732 139.774 446.823 100.237 415.669C98.6831 407.065 104.969 408.551 101.8 400.942C86.2169 385.698 121.206 388.533 108.463 370.722C103.817 358.835 96.4269 344.327 99.9689 332.21C107.497 320.25 120.838 314.357 131.087 304.147C137.702 291.489 150.78 279.62 148.17 265.3C139.251 263.846 134.246 266.762 123.998 267.149C98.7452 261.203 133.271 257.417 140.13 252.126C156.105 247.551 174.546 241.863 184.618 228.145C199.45 218.986 190.746 204.737 179.054 197.567M448.154 238.637C450.572 239.76 452.695 256.576 447.781 263.421C442.728 271.863 440.123 251.662 445.305 249.234C445.893 240.85 447.054 238.125 448.154 238.637ZM453.23 295.743C453.699 295.657 454.325 296.642 455.257 299.247C455.362 299.094 455.434 299.056 455.539 298.913C453.964 304.689 452.157 310.399 450.123 316.03C447.174 318.214 444.449 319.285 445.625 313.128C452.308 316.661 451.208 296.126 453.23 295.743ZM142.086 377.032C140.298 377.247 138.309 378.863 136.22 382.39C117.425 384.102 124.82 405.812 133.056 416.176C139.127 424.684 149.394 421.085 147.563 410.239C153.935 401.381 149.829 376.105 142.086 377.032Z" fill="#04A3FF"/>
</g>
<defs>
<clipPath id="clip0_3059_46">
<rect width="478" height="478" fill="white"/>
</clipPath>
</defs>
</svg>
