<svg width="429" height="178" viewBox="0 0 429 178" fill="none" xmlns="http://www.w3.org/2000/svg">
<rect x="0.5" y="0.5" width="428" height="177" rx="9.5" fill="white"/>
<rect x="0.5" y="0.5" width="428" height="177" rx="9.5" stroke="#00A2FF"/>
<path fill-rule="evenodd" clip-rule="evenodd" d="M61.608 55.7932C61.3864 53.3023 60.9384 51.0623 59.9397 49.3753L63.4992 45.8158C65.3299 45.6972 67.0409 44.8646 68.2639 43.4972C69.4869 42.1298 70.1243 40.3369 70.0388 38.5044C69.9533 36.6718 69.1519 34.946 67.8069 33.6984C66.4619 32.4508 64.6808 31.7811 62.847 31.8333C61.9674 28.5235 57.408 26 51.9154 26C47.0574 26 42.9285 27.974 41.4329 30.7215C37.143 31.1345 33.832 33.8248 33.832 37.0833C33.832 40.6277 37.7497 43.5 42.582 43.5C44.9072 43.5 47.02 42.835 48.588 41.75C49.3184 43.1032 50.1388 44.4058 51.0439 45.649C51.9865 46.9323 53.1322 48.2623 54.4202 49.2832C55.5134 50.1477 56.7874 50.8512 58.1839 51.0378C58.7532 52.2348 59.0962 53.8845 59.2829 55.9997C59.4987 58.4158 59.4987 61.2753 59.4987 64.5V65.6667H61.832V64.4592C61.832 61.2823 61.832 58.3225 61.608 55.7932ZM58.353 39.2813C58.3212 38.9464 58.2174 38.6223 58.0486 38.3312C57.8798 38.0402 57.65 37.7891 57.3751 37.5952C57.1001 37.4012 56.7865 37.2691 56.4557 37.2077C56.1249 37.1463 55.7847 37.1572 55.4585 37.2397C54.2995 37.5272 53.1095 37.6706 51.9154 37.6667C51.4744 37.6667 51.0415 37.648 50.6192 37.6118C50.2061 37.5766 49.7911 37.6521 49.4169 37.8305C49.0427 38.0089 48.7228 38.2838 48.49 38.6268C47.5917 39.9533 45.4404 41.1667 42.582 41.1667C40.6104 41.1667 38.9187 40.5775 37.7754 39.7387C36.6297 38.8987 36.1654 37.9338 36.1654 37.0833C36.1654 35.5713 37.9305 33.4025 41.6557 33.0443C42.0355 33.0078 42.4005 32.8788 42.7188 32.6685C43.0371 32.4582 43.299 32.173 43.4815 31.838C44.402 30.1475 47.4937 28.3333 51.9154 28.3333C54.3222 28.3333 56.4455 28.8887 58.003 29.7287C59.5944 30.5873 60.3714 31.607 60.5907 32.433C60.7248 32.9388 61.025 33.3848 61.4431 33.6994C61.8612 34.0141 62.3729 34.179 62.896 34.1678L62.9987 34.1667C63.7424 34.1668 64.4753 34.3447 65.1363 34.6856C65.7973 35.0264 66.3672 35.5202 66.7987 36.126C67.2301 36.7317 67.5106 37.4318 67.6166 38.1679C67.7227 38.904 67.6512 39.6548 67.4083 40.3577C67.1654 41.0606 66.758 41.6952 66.2201 42.2088C65.6822 42.7223 65.0293 43.0998 64.3159 43.3099C63.6025 43.52 62.8492 43.5566 62.1189 43.4165C61.3885 43.2765 60.7021 42.9639 60.117 42.5048L59.725 42.1595C58.9426 41.3919 58.4566 40.3725 58.353 39.2813ZM57.0697 42.5562C56.4897 41.6331 56.1338 40.5871 56.0302 39.5018C55.2975 39.6873 54.5264 39.8238 53.726 39.9067C52.6277 40.0207 51.5211 40.0308 50.4209 39.937C50.3923 39.9794 50.3631 40.0214 50.3334 40.063C50.4594 40.3057 50.625 40.6183 50.828 40.9812C51.495 42.1816 52.2385 43.3378 53.054 44.4427V44.2723C54.3432 44.2723 55.6965 43.5758 56.8189 42.7463C56.9052 42.6833 56.9892 42.6203 57.0697 42.5562ZM54.6979 46.3875C55.0782 46.7772 55.4679 47.1377 55.868 47.4538C56.4432 47.9088 57.0044 48.2495 57.548 48.4688L60.6035 45.4122C59.8887 45.1515 59.2211 44.776 58.6272 44.3003C58.493 44.4077 58.3519 44.5162 58.2049 44.6247C57.2995 45.292 56.0792 46.0305 54.6979 46.3875Z" fill="#04A3FF"/>
<path fill-rule="evenodd" clip-rule="evenodd" d="M42.002 48.7497C42.0023 49.1327 41.9273 49.5121 41.7811 49.8661C41.6348 50.2201 41.4203 50.5418 41.1497 50.8129C40.8792 51.084 40.5579 51.2992 40.2041 51.4461C39.8504 51.5931 39.4712 51.6689 39.0882 51.6693C38.7052 51.6697 38.3258 51.5946 37.9718 51.4484C37.6178 51.3021 37.2961 51.0876 37.025 50.8171C36.7538 50.5465 36.5387 50.2252 36.3918 49.8715C36.2448 49.5177 36.169 49.1385 36.1686 48.7555C36.1678 47.982 36.4744 47.2398 37.0208 46.6923C37.5673 46.1447 38.3088 45.8367 39.0824 45.8359C39.8559 45.8352 40.5981 46.1417 41.1456 46.6881C41.6931 47.2346 42.0012 47.9761 42.002 48.7497ZM39.6686 48.752C39.6687 48.8286 39.6537 48.9045 39.6244 48.9753C39.5952 49.0461 39.5523 49.1104 39.4982 49.1647C39.4441 49.2189 39.3798 49.2619 39.3091 49.2913C39.2383 49.3207 39.1625 49.3359 39.0859 49.3359C39.0093 49.336 38.9334 49.321 38.8626 49.2918C38.7918 49.2625 38.7274 49.2196 38.6732 49.1655C38.619 49.1114 38.576 49.0471 38.5466 48.9764C38.5172 48.9056 38.502 48.8298 38.502 48.7532C38.5018 48.5985 38.5631 48.45 38.6724 48.3405C38.7817 48.231 38.93 48.1694 39.0847 48.1693C39.2394 48.1691 39.3878 48.2304 39.4974 48.3397C39.6069 48.449 39.6685 48.5973 39.6686 48.752ZM33.8353 53.4164C33.8357 53.7994 33.7606 54.1787 33.6144 54.5327C33.4682 54.8868 33.2536 55.2085 32.9831 55.4796C32.7125 55.7507 32.3912 55.9659 32.0375 56.1128C31.6838 56.2597 31.3046 56.3356 30.9215 56.3359C30.5385 56.3363 30.1592 56.2613 29.8052 56.115C29.4511 55.9688 29.1294 55.7543 28.8583 55.4837C28.5872 55.2132 28.372 54.8918 28.2251 54.5381C28.0782 54.1844 28.0023 53.8052 28.002 53.4222C28.0012 52.6486 28.3077 51.9065 28.8542 51.3589C29.4006 50.8114 30.1422 50.5034 30.9157 50.5026C31.6893 50.5018 32.4314 50.8084 32.979 51.3548C33.5265 51.9012 33.8345 52.6428 33.8353 53.4164ZM31.502 53.4187C31.502 53.5734 31.4405 53.7218 31.3311 53.8312C31.2217 53.9406 31.0733 54.002 30.9186 54.002C30.7639 54.002 30.6155 53.9406 30.5061 53.8312C30.3967 53.7218 30.3353 53.5734 30.3353 53.4187C30.3353 53.264 30.3967 53.1156 30.5061 53.0062C30.6155 52.8968 30.7639 52.8354 30.9186 52.8354C31.0733 52.8354 31.2217 52.8968 31.3311 53.0062C31.4405 53.1156 31.502 53.264 31.502 53.4187ZM50.7543 56.3354C51.5278 56.3347 52.2695 56.0269 52.816 55.4794C53.3625 54.932 53.6692 54.1899 53.6686 53.4164C53.668 52.6428 53.3601 51.9012 52.8127 51.3546C52.2653 50.8081 51.5232 50.5014 50.7496 50.502C49.9761 50.5026 49.2345 50.8105 48.6879 51.3579C48.1414 51.9054 47.8347 52.6475 47.8353 53.421C47.8359 54.1946 48.1438 54.9362 48.6912 55.4827C49.2386 56.0293 49.9807 56.336 50.7543 56.3354ZM50.752 54.002C50.9067 54.002 51.055 53.9406 51.1644 53.8312C51.2738 53.7218 51.3353 53.5734 51.3353 53.4187C51.3353 53.264 51.2738 53.1156 51.1644 53.0062C51.055 52.8968 50.9067 52.8354 50.752 52.8354C50.5972 52.8354 50.4489 52.8968 50.3395 53.0062C50.2301 53.1156 50.1686 53.264 50.1686 53.4187C50.1686 53.5734 50.2301 53.7218 50.3395 53.8312C50.4489 53.9406 50.5972 54.002 50.752 54.002Z" fill="#04A3FF"/>
<path d="M38.5 52.833C39.1188 52.833 39.7123 53.0788 40.1499 53.5164C40.5875 53.954 40.8333 54.5475 40.8333 55.1663V57.4997H43.1667C43.7855 57.4997 44.379 57.7455 44.8166 58.1831C45.2542 58.6207 45.5 59.2142 45.5 59.833C45.5 60.4518 45.2542 61.0453 44.8166 61.4829C44.379 61.9205 43.7855 62.1663 43.1667 62.1663H38.5C37.8812 62.1663 37.2877 61.9205 36.8501 61.4829C36.4125 61.0453 36.1667 60.4518 36.1667 59.833V55.1663C36.1667 54.5475 36.4125 53.954 36.8501 53.5164C37.2877 53.0788 37.8812 52.833 38.5 52.833ZM32.6667 59.833C32.6667 59.2142 32.4208 58.6207 31.9832 58.1831C31.5457 57.7455 30.9522 57.4997 30.3333 57.4997C29.7145 57.4997 29.121 57.7455 28.6834 58.1831C28.2458 58.6207 28 59.2142 28 59.833V65.6663C28 66.2852 28.2458 66.8787 28.6834 67.3163C29.121 67.7538 29.7145 67.9997 30.3333 67.9997H35C35.6188 67.9997 36.2123 67.7538 36.6499 67.3163C37.0875 66.8787 37.3333 66.2852 37.3333 65.6663C37.3333 65.0475 37.0875 64.454 36.6499 64.0164C36.2123 63.5788 35.6188 63.333 35 63.333H32.6667V59.833ZM51.3333 57.4997C50.7145 57.4997 50.121 57.7455 49.6834 58.1831C49.2458 58.6207 49 59.2142 49 59.833V63.333H46.6667C46.0478 63.333 45.4543 63.5788 45.0168 64.0164C44.5792 64.454 44.3333 65.0475 44.3333 65.6663C44.3333 66.2852 44.5792 66.8787 45.0168 67.3163C45.4543 67.7538 46.0478 67.9997 46.6667 67.9997H51.3333C51.9522 67.9997 52.5457 67.7538 52.9832 67.3163C53.4208 66.8787 53.6667 66.2852 53.6667 65.6663V59.833C53.6667 59.2142 53.4208 58.6207 52.9832 58.1831C52.5457 57.7455 51.9522 57.4997 51.3333 57.4997Z" fill="#04A3FF"/>
<path d="M86.5435 50.6378C86.4867 50.0649 86.2428 49.6198 85.812 49.3026C85.3811 48.9853 84.7963 48.8267 84.0577 48.8267C83.5558 48.8267 83.132 48.8977 82.7864 49.0398C82.4408 49.1771 82.1756 49.3688 81.9909 49.6151C81.811 49.8613 81.7211 50.1406 81.7211 50.4531C81.7116 50.7135 81.766 50.9408 81.8844 51.1349C82.0075 51.3291 82.1756 51.4972 82.3887 51.6392C82.6017 51.7765 82.848 51.8973 83.1273 52.0014C83.4067 52.1009 83.705 52.1861 84.0222 52.2571L85.329 52.5696C85.9635 52.7116 86.5459 52.901 87.0762 53.1378C87.6065 53.3745 88.0658 53.6657 88.454 54.0114C88.8423 54.357 89.1429 54.7642 89.356 55.233C89.5738 55.7017 89.6851 56.2391 89.6898 56.8452C89.6851 57.7353 89.4578 58.5071 89.008 59.1605C88.5629 59.8092 87.919 60.3134 87.0762 60.6733C86.2381 61.0284 85.2272 61.206 84.0435 61.206C82.8693 61.206 81.8465 61.026 80.9753 60.6662C80.1088 60.3063 79.4318 59.7737 78.9441 59.0682C78.4611 58.358 78.2078 57.4796 78.1841 56.4332H81.16C81.1931 56.9209 81.3328 57.3281 81.579 57.6548C81.83 57.9768 82.1638 58.2206 82.5804 58.3864C83.0018 58.5473 83.4777 58.6278 84.008 58.6278C84.5288 58.6278 84.981 58.5521 85.3645 58.4006C85.7528 58.2491 86.0534 58.0384 86.2665 57.7685C86.4796 57.4986 86.5861 57.1884 86.5861 56.8381C86.5861 56.5114 86.4891 56.2367 86.2949 56.0142C86.1055 55.7917 85.8262 55.6023 85.4569 55.446C85.0923 55.2898 84.6448 55.1477 84.1145 55.0199L82.5307 54.6222C81.3044 54.3239 80.3361 53.8575 79.6259 53.223C78.9157 52.5885 78.5629 51.7339 78.5676 50.6591C78.5629 49.7784 78.7973 49.009 79.2708 48.3509C79.749 47.6927 80.4048 47.179 81.2381 46.8097C82.0714 46.4403 83.0184 46.2557 84.079 46.2557C85.1586 46.2557 86.1008 46.4403 86.9057 46.8097C87.7154 47.179 88.3451 47.6927 88.7949 48.3509C89.2447 49.009 89.4767 49.7713 89.4909 50.6378H86.5435ZM96.6305 61.2131C95.5131 61.2131 94.5519 60.9763 93.747 60.5028C92.9468 60.0246 92.3313 59.3617 91.9004 58.5142C91.4743 57.6667 91.2612 56.6913 91.2612 55.5881C91.2612 54.4706 91.4766 53.4905 91.9075 52.6477C92.3431 51.8002 92.961 51.1397 93.7612 50.6662C94.5614 50.188 95.5131 49.9489 96.6163 49.9489C97.568 49.9489 98.4013 50.1217 99.1163 50.4673C99.8313 50.813 100.397 51.2983 100.814 51.9233C101.23 52.5483 101.46 53.2822 101.503 54.125H98.6475C98.5671 53.5805 98.354 53.1425 98.0083 52.8111C97.6674 52.4749 97.22 52.3068 96.666 52.3068C96.1973 52.3068 95.7877 52.4347 95.4373 52.6903C95.0917 52.9413 94.8218 53.3082 94.6277 53.7912C94.4335 54.2741 94.3365 54.8589 94.3365 55.5455C94.3365 56.2415 94.4312 56.8333 94.6206 57.321C94.8147 57.8087 95.0869 58.1804 95.4373 58.4361C95.7877 58.6918 96.1973 58.8196 96.666 58.8196C97.0117 58.8196 97.3218 58.7486 97.5964 58.6065C97.8758 58.4645 98.1054 58.2585 98.2853 57.9886C98.47 57.714 98.5907 57.3849 98.6475 57.0014H101.503C101.455 57.8348 101.228 58.5687 100.821 59.2031C100.418 59.8329 99.862 60.3253 99.1518 60.6804C98.4416 61.0355 97.6011 61.2131 96.6305 61.2131ZM106.465 54.6932V61H103.44V46.4545H106.38V52.0156H106.508C106.754 51.3717 107.152 50.8674 107.701 50.5028C108.25 50.1335 108.939 49.9489 109.768 49.9489C110.526 49.9489 111.186 50.1146 111.749 50.446C112.318 50.7727 112.758 51.2438 113.07 51.8594C113.388 52.4702 113.544 53.2017 113.539 54.054V61H110.514V54.5938C110.518 53.9214 110.348 53.3982 110.002 53.0241C109.661 52.6501 109.183 52.4631 108.568 52.4631C108.156 52.4631 107.791 52.5507 107.474 52.7259C107.161 52.901 106.915 53.1567 106.735 53.4929C106.56 53.8243 106.47 54.2244 106.465 54.6932ZM120.892 61.2131C119.77 61.2131 118.804 60.9858 117.994 60.5312C117.189 60.072 116.569 59.4233 116.133 58.5852C115.698 57.7424 115.48 56.7457 115.48 55.5952C115.48 54.473 115.698 53.4882 116.133 52.6406C116.569 51.7931 117.182 51.1326 117.973 50.6591C118.768 50.1856 119.701 49.9489 120.771 49.9489C121.491 49.9489 122.161 50.0649 122.781 50.2969C123.406 50.5241 123.951 50.8674 124.415 51.3267C124.883 51.786 125.248 52.3636 125.508 53.0597C125.769 53.7509 125.899 54.5606 125.899 55.4886V56.3196H116.687V54.4446H123.051C123.051 54.009 122.956 53.6231 122.767 53.2869C122.577 52.9508 122.315 52.688 121.979 52.4986C121.647 52.3045 121.261 52.2074 120.821 52.2074C120.362 52.2074 119.954 52.3139 119.599 52.527C119.249 52.7353 118.974 53.017 118.775 53.3722C118.577 53.7225 118.475 54.1132 118.47 54.544V56.3267C118.47 56.8665 118.569 57.3329 118.768 57.7259C118.972 58.1188 119.258 58.4219 119.628 58.6349C119.997 58.848 120.435 58.9545 120.942 58.9545C121.278 58.9545 121.586 58.9072 121.865 58.8125C122.144 58.7178 122.383 58.5758 122.582 58.3864C122.781 58.197 122.933 57.965 123.037 57.6903L125.835 57.875C125.693 58.5473 125.402 59.1345 124.961 59.6364C124.526 60.1335 123.962 60.5218 123.271 60.8011C122.585 61.0758 121.791 61.2131 120.892 61.2131ZM131.893 61.1776C131.065 61.1776 130.314 60.9645 129.642 60.5384C128.974 60.1075 128.444 59.4754 128.051 58.642C127.663 57.804 127.469 56.7765 127.469 55.5597C127.469 54.3097 127.67 53.2704 128.072 52.4418C128.475 51.6084 129.01 50.9858 129.677 50.5739C130.35 50.1572 131.086 49.9489 131.886 49.9489C132.497 49.9489 133.006 50.053 133.413 50.2614C133.825 50.465 134.157 50.7206 134.407 51.0284C134.663 51.3314 134.857 51.6297 134.99 51.9233H135.082V46.4545H138.101V61H135.118V59.2528H134.99C134.848 59.5559 134.647 59.8565 134.386 60.1548C134.131 60.4484 133.797 60.6922 133.385 60.8864C132.978 61.0805 132.48 61.1776 131.893 61.1776ZM132.852 58.7699C133.34 58.7699 133.752 58.6373 134.088 58.3722C134.429 58.1023 134.689 57.7259 134.869 57.2429C135.054 56.7599 135.146 56.1941 135.146 55.5455C135.146 54.8968 135.056 54.3333 134.876 53.8551C134.696 53.3769 134.436 53.0076 134.095 52.7472C133.754 52.4867 133.34 52.3565 132.852 52.3565C132.355 52.3565 131.936 52.4915 131.595 52.7614C131.254 53.0312 130.996 53.4053 130.821 53.8835C130.646 54.3617 130.558 54.9157 130.558 55.5455C130.558 56.1799 130.646 56.741 130.821 57.2287C131.001 57.7116 131.259 58.0904 131.595 58.3651C131.936 58.6349 132.355 58.7699 132.852 58.7699ZM147.584 56.3551V50.0909H150.61V61H147.705V59.0185H147.591C147.345 59.6577 146.935 60.1714 146.362 60.5597C145.794 60.9479 145.101 61.142 144.281 61.142C143.552 61.142 142.911 60.9763 142.357 60.6449C141.803 60.3134 141.369 59.8423 141.057 59.2315C140.749 58.6207 140.593 57.8892 140.588 57.0369V50.0909H143.614V56.4972C143.619 57.1411 143.791 57.6501 144.132 58.0241C144.473 58.3982 144.93 58.5852 145.503 58.5852C145.868 58.5852 146.209 58.5024 146.526 58.3366C146.843 58.1662 147.099 57.9152 147.293 57.5838C147.492 57.2524 147.589 56.8428 147.584 56.3551ZM156.055 46.4545V61H153.03V46.4545H156.055ZM163.45 61.2131C162.328 61.2131 161.362 60.9858 160.553 60.5312C159.748 60.072 159.128 59.4233 158.692 58.5852C158.256 57.7424 158.039 56.7457 158.039 55.5952C158.039 54.473 158.256 53.4882 158.692 52.6406C159.128 51.7931 159.741 51.1326 160.531 50.6591C161.327 50.1856 162.26 49.9489 163.33 49.9489C164.049 49.9489 164.719 50.0649 165.34 50.2969C165.965 50.5241 166.509 50.8674 166.973 51.3267C167.442 51.786 167.807 52.3636 168.067 53.0597C168.327 53.7509 168.458 54.5606 168.458 55.4886V56.3196H159.246V54.4446H165.61C165.61 54.009 165.515 53.6231 165.325 53.2869C165.136 52.9508 164.873 52.688 164.537 52.4986C164.206 52.3045 163.82 52.2074 163.379 52.2074C162.92 52.2074 162.513 52.3139 162.158 52.527C161.807 52.7353 161.533 53.017 161.334 53.3722C161.135 53.7225 161.033 54.1132 161.029 54.544V56.3267C161.029 56.8665 161.128 57.3329 161.327 57.7259C161.53 58.1188 161.817 58.4219 162.186 58.6349C162.556 58.848 162.994 58.9545 163.5 58.9545C163.836 58.9545 164.144 58.9072 164.423 58.8125C164.703 58.7178 164.942 58.5758 165.141 58.3864C165.34 58.197 165.491 57.965 165.595 57.6903L168.394 57.875C168.252 58.5473 167.96 59.1345 167.52 59.6364C167.084 60.1335 166.521 60.5218 165.83 60.8011C165.143 61.0758 164.35 61.2131 163.45 61.2131ZM175.118 46.4545H178.91L182.916 56.2273H183.086L187.092 46.4545H190.885V61H187.902V51.5327H187.781L184.017 60.929H181.986L178.221 51.4972H178.101V61H175.118V46.4545ZM198.333 61.2131C197.211 61.2131 196.245 60.9858 195.436 60.5312C194.631 60.072 194.01 59.4233 193.575 58.5852C193.139 57.7424 192.921 56.7457 192.921 55.5952C192.921 54.473 193.139 53.4882 193.575 52.6406C194.01 51.7931 194.624 51.1326 195.414 50.6591C196.21 50.1856 197.142 49.9489 198.213 49.9489C198.932 49.9489 199.602 50.0649 200.222 50.2969C200.847 50.5241 201.392 50.8674 201.856 51.3267C202.325 51.786 202.689 52.3636 202.95 53.0597C203.21 53.7509 203.34 54.5606 203.34 55.4886V56.3196H194.129V54.4446H200.492C200.492 54.009 200.398 53.6231 200.208 53.2869C200.019 52.9508 199.756 52.688 199.42 52.4986C199.088 52.3045 198.703 52.2074 198.262 52.2074C197.803 52.2074 197.396 52.3139 197.041 52.527C196.69 52.7353 196.416 53.017 196.217 53.3722C196.018 53.7225 195.916 54.1132 195.911 54.544V56.3267C195.911 56.8665 196.011 57.3329 196.21 57.7259C196.413 58.1188 196.7 58.4219 197.069 58.6349C197.438 58.848 197.876 58.9545 198.383 58.9545C198.719 58.9545 199.027 58.9072 199.306 58.8125C199.586 58.7178 199.825 58.5758 200.024 58.3864C200.222 58.197 200.374 57.965 200.478 57.6903L203.276 57.875C203.134 58.5473 202.843 59.1345 202.403 59.6364C201.967 60.1335 201.404 60.5218 200.713 60.8011C200.026 61.0758 199.233 61.2131 198.333 61.2131ZM210.286 61.2131C209.164 61.2131 208.198 60.9858 207.389 60.5312C206.584 60.072 205.963 59.4233 205.528 58.5852C205.092 57.7424 204.874 56.7457 204.874 55.5952C204.874 54.473 205.092 53.4882 205.528 52.6406C205.963 51.7931 206.577 51.1326 207.367 50.6591C208.163 50.1856 209.096 49.9489 210.166 49.9489C210.885 49.9489 211.555 50.0649 212.176 50.2969C212.801 50.5241 213.345 50.8674 213.809 51.3267C214.278 51.786 214.642 52.3636 214.903 53.0597C215.163 53.7509 215.294 54.5606 215.294 55.4886V56.3196H206.082V54.4446H212.445C212.445 54.009 212.351 53.6231 212.161 53.2869C211.972 52.9508 211.709 52.688 211.373 52.4986C211.042 52.3045 210.656 52.2074 210.215 52.2074C209.756 52.2074 209.349 52.3139 208.994 52.527C208.643 52.7353 208.369 53.017 208.17 53.3722C207.971 53.7225 207.869 54.1132 207.865 54.544V56.3267C207.865 56.8665 207.964 57.3329 208.163 57.7259C208.366 58.1188 208.653 58.4219 209.022 58.6349C209.392 58.848 209.829 58.9545 210.336 58.9545C210.672 58.9545 210.98 58.9072 211.259 58.8125C211.539 58.7178 211.778 58.5758 211.977 58.3864C212.176 58.197 212.327 57.965 212.431 57.6903L215.23 57.875C215.088 58.5473 214.796 59.1345 214.356 59.6364C213.92 60.1335 213.357 60.5218 212.666 60.8011C211.979 61.0758 211.186 61.2131 210.286 61.2131ZM223.07 50.0909V52.3636H216.501V50.0909H223.07ZM217.992 47.4773H221.018V57.6477C221.018 57.9271 221.061 58.1449 221.146 58.3011C221.231 58.4527 221.349 58.5592 221.501 58.6207C221.657 58.6823 221.837 58.7131 222.041 58.7131C222.183 58.7131 222.325 58.7012 222.467 58.6776C222.609 58.6491 222.718 58.6278 222.794 58.6136L223.269 60.8651C223.118 60.9124 222.905 60.9669 222.63 61.0284C222.356 61.0947 222.022 61.1349 221.629 61.1491C220.9 61.1776 220.26 61.0805 219.711 60.858C219.167 60.6354 218.743 60.2898 218.44 59.821C218.137 59.3523 217.988 58.7604 217.992 58.0455V47.4773ZM225.041 61V50.0909H228.067V61H225.041ZM226.561 48.6847C226.111 48.6847 225.726 48.5355 225.404 48.2372C225.086 47.9342 224.928 47.572 224.928 47.1506C224.928 46.7339 225.086 46.3764 225.404 46.0781C225.726 45.7751 226.111 45.6236 226.561 45.6236C227.011 45.6236 227.395 45.7751 227.712 46.0781C228.034 46.3764 228.195 46.7339 228.195 47.1506C228.195 47.572 228.034 47.9342 227.712 48.2372C227.395 48.5355 227.011 48.6847 226.561 48.6847ZM233.516 54.6932V61H230.491V50.0909H233.374V52.0156H233.502C233.743 51.3812 234.148 50.8793 234.716 50.5099C235.285 50.1359 235.974 49.9489 236.783 49.9489C237.541 49.9489 238.201 50.1146 238.765 50.446C239.328 50.7775 239.766 51.2509 240.079 51.8665C240.391 52.4773 240.547 53.2064 240.547 54.054V61H237.522V54.5938C237.527 53.9261 237.356 53.4053 237.01 53.0312C236.665 52.6525 236.189 52.4631 235.583 52.4631C235.176 52.4631 234.816 52.5507 234.503 52.7259C234.196 52.901 233.954 53.1567 233.779 53.4929C233.608 53.8243 233.521 54.2244 233.516 54.6932ZM247.847 65.3182C246.867 65.3182 246.026 65.1832 245.325 64.9134C244.629 64.6482 244.075 64.286 243.664 63.8267C243.252 63.3674 242.984 62.8513 242.861 62.2784L245.659 61.902C245.744 62.1198 245.879 62.3234 246.064 62.5128C246.249 62.7022 246.493 62.8537 246.796 62.9673C247.103 63.0857 247.477 63.1449 247.918 63.1449C248.576 63.1449 249.118 62.9839 249.544 62.6619C249.975 62.3447 250.191 61.812 250.191 61.0639V59.0682H250.063C249.93 59.3712 249.731 59.6577 249.466 59.9276C249.201 60.1974 248.86 60.4176 248.443 60.5881C248.027 60.7585 247.53 60.8438 246.952 60.8438C246.133 60.8438 245.387 60.6544 244.715 60.2756C244.047 59.892 243.514 59.3073 243.117 58.5213C242.724 57.7306 242.527 56.7315 242.527 55.5241C242.527 54.2884 242.728 53.2562 243.131 52.4276C243.533 51.599 244.068 50.9787 244.736 50.5668C245.408 50.1548 246.145 49.9489 246.945 49.9489C247.556 49.9489 248.067 50.053 248.479 50.2614C248.891 50.465 249.222 50.7206 249.473 51.0284C249.729 51.3314 249.925 51.6297 250.063 51.9233H250.176V50.0909H253.181V61.1065C253.181 62.0346 252.953 62.8111 252.499 63.4361C252.044 64.0611 251.414 64.5298 250.61 64.8423C249.809 65.1596 248.888 65.3182 247.847 65.3182ZM247.911 58.571C248.398 58.571 248.81 58.4503 249.146 58.2088C249.487 57.9626 249.748 57.6122 249.928 57.1577C250.112 56.6984 250.205 56.1491 250.205 55.5099C250.205 54.8707 250.115 54.3168 249.935 53.848C249.755 53.3745 249.494 53.0076 249.154 52.7472C248.813 52.4867 248.398 52.3565 247.911 52.3565C247.414 52.3565 246.994 52.4915 246.654 52.7614C246.313 53.0265 246.055 53.3958 245.879 53.8693C245.704 54.3428 245.617 54.8897 245.617 55.5099C245.617 56.1397 245.704 56.6842 245.879 57.1435C246.059 57.598 246.317 57.9508 246.654 58.2017C246.994 58.4479 247.414 58.571 247.911 58.571ZM264.665 53.2017L261.895 53.3722C261.848 53.1354 261.746 52.9223 261.59 52.733C261.433 52.5388 261.227 52.3849 260.972 52.2713C260.721 52.1529 260.42 52.0938 260.07 52.0938C259.601 52.0938 259.206 52.1932 258.884 52.392C258.562 52.5862 258.401 52.8466 258.401 53.1733C258.401 53.4337 258.505 53.6539 258.713 53.8338C258.922 54.0137 259.279 54.1581 259.786 54.267L261.76 54.6648C262.821 54.8826 263.611 55.233 264.132 55.7159C264.653 56.1989 264.914 56.8333 264.914 57.6193C264.914 58.3343 264.703 58.9616 264.281 59.5014C263.865 60.0412 263.292 60.4626 262.563 60.7656C261.838 61.0639 261.003 61.2131 260.056 61.2131C258.611 61.2131 257.461 60.9124 256.604 60.3111C255.752 59.705 255.252 58.8812 255.105 57.8395L258.081 57.6832C258.171 58.1236 258.389 58.4598 258.735 58.6918C259.08 58.919 259.523 59.0327 260.063 59.0327C260.593 59.0327 261.019 58.9309 261.341 58.7273C261.668 58.5189 261.834 58.2514 261.838 57.9247C261.834 57.6501 261.718 57.4252 261.49 57.25C261.263 57.0701 260.913 56.9328 260.439 56.8381L258.55 56.4616C257.485 56.2486 256.691 55.8793 256.171 55.3537C255.655 54.8281 255.396 54.1581 255.396 53.3438C255.396 52.643 255.586 52.0393 255.965 51.5327C256.348 51.026 256.886 50.6354 257.577 50.3608C258.273 50.0862 259.087 49.9489 260.02 49.9489C261.398 49.9489 262.482 50.2401 263.273 50.8224C264.068 51.4048 264.532 52.1979 264.665 53.2017Z" fill="#1C1E20"/>
<path d="M31.2557 91.3636V103H29.1477V91.3636H31.2557ZM35.5043 97.8864V103H33.4474V94.2727H35.4134V95.7557H35.5156C35.7164 95.267 36.0365 94.8788 36.4759 94.5909C36.919 94.303 37.4664 94.1591 38.1179 94.1591C38.7202 94.1591 39.2448 94.2879 39.6918 94.5455C40.1425 94.803 40.491 95.1761 40.7372 95.6648C40.9872 96.1534 41.1103 96.7462 41.1065 97.4432V103H39.0497V97.7614C39.0497 97.178 38.8982 96.7216 38.5952 96.392C38.2959 96.0625 37.8812 95.8977 37.3509 95.8977C36.991 95.8977 36.6709 95.9773 36.3906 96.1364C36.1141 96.2917 35.8963 96.517 35.7372 96.8125C35.5819 97.108 35.5043 97.4659 35.5043 97.8864ZM47.5554 94.2727V95.8636H42.5384V94.2727H47.5554ZM43.777 92.1818H45.8338V100.375C45.8338 100.652 45.8755 100.864 45.9588 101.011C46.0459 101.155 46.1596 101.254 46.2997 101.307C46.4399 101.36 46.5952 101.386 46.7656 101.386C46.8944 101.386 47.0118 101.377 47.1179 101.358C47.2277 101.339 47.3111 101.322 47.3679 101.307L47.7145 102.915C47.6046 102.953 47.4474 102.994 47.2429 103.04C47.0421 103.085 46.7959 103.112 46.5043 103.119C45.9891 103.134 45.5251 103.057 45.1122 102.886C44.6993 102.712 44.3717 102.443 44.1293 102.08C43.8906 101.716 43.7732 101.261 43.777 100.716V92.1818ZM53.0455 103.17C52.1705 103.17 51.4148 102.989 50.7784 102.625C50.1458 102.258 49.6591 101.739 49.3182 101.068C48.9773 100.394 48.8068 99.6004 48.8068 98.6875C48.8068 97.7898 48.9773 97.0019 49.3182 96.3239C49.6629 95.642 50.1439 95.1117 50.7614 94.733C51.3788 94.3504 52.1042 94.1591 52.9375 94.1591C53.4754 94.1591 53.983 94.2462 54.4602 94.4205C54.9413 94.5909 55.3655 94.8561 55.733 95.2159C56.1042 95.5758 56.3958 96.0341 56.608 96.5909C56.8201 97.1439 56.9261 97.803 56.9261 98.5682V99.1989H49.7727V97.8125H54.9545C54.9508 97.4186 54.8655 97.0682 54.6989 96.7614C54.5322 96.4508 54.2992 96.2064 54 96.0284C53.7045 95.8504 53.3598 95.7614 52.9659 95.7614C52.5455 95.7614 52.1761 95.8636 51.858 96.0682C51.5398 96.2689 51.2917 96.5341 51.1136 96.8636C50.9394 97.1894 50.8504 97.5473 50.8466 97.9375V99.1477C50.8466 99.6553 50.9394 100.091 51.125 100.455C51.3106 100.814 51.5701 101.091 51.9034 101.284C52.2367 101.473 52.6269 101.568 53.0739 101.568C53.3731 101.568 53.6439 101.527 53.8864 101.443C54.1288 101.356 54.339 101.229 54.517 101.062C54.6951 100.896 54.8295 100.689 54.9205 100.443L56.8409 100.659C56.7197 101.167 56.4886 101.61 56.1477 101.989C55.8106 102.364 55.3788 102.655 54.8523 102.864C54.3258 103.068 53.7235 103.17 53.0455 103.17ZM58.6662 103V94.2727H60.6605V95.7273H60.7514C60.9105 95.2235 61.1832 94.8352 61.5696 94.5625C61.9598 94.286 62.4048 94.1477 62.9048 94.1477C63.0185 94.1477 63.1454 94.1534 63.2855 94.1648C63.4295 94.1723 63.5488 94.1856 63.6435 94.2045V96.0966C63.5563 96.0663 63.4181 96.0398 63.2287 96.017C63.0431 95.9905 62.8632 95.9773 62.6889 95.9773C62.3139 95.9773 61.9768 96.0587 61.6776 96.2216C61.3821 96.3807 61.1491 96.6023 60.9787 96.8864C60.8082 97.1705 60.723 97.4981 60.723 97.8693V103H58.6662ZM67.0668 97.8864V103H65.0099V94.2727H66.9759V95.7557H67.0781C67.2789 95.267 67.599 94.8788 68.0384 94.5909C68.4815 94.303 69.0289 94.1591 69.6804 94.1591C70.2827 94.1591 70.8073 94.2879 71.2543 94.5455C71.705 94.803 72.0535 95.1761 72.2997 95.6648C72.5497 96.1534 72.6728 96.7462 72.669 97.4432V103H70.6122V97.7614C70.6122 97.178 70.4607 96.7216 70.1577 96.392C69.8584 96.0625 69.4437 95.8977 68.9134 95.8977C68.5535 95.8977 68.2334 95.9773 67.9531 96.1364C67.6766 96.2917 67.4588 96.517 67.2997 96.8125C67.1444 97.108 67.0668 97.4659 67.0668 97.8864ZM77.2713 103.176C76.7183 103.176 76.2202 103.078 75.777 102.881C75.3376 102.68 74.9891 102.384 74.7315 101.994C74.4777 101.604 74.3509 101.123 74.3509 100.551C74.3509 100.059 74.4418 99.6515 74.6236 99.3295C74.8054 99.0076 75.0535 98.75 75.3679 98.5568C75.6823 98.3636 76.0365 98.2178 76.4304 98.1193C76.8281 98.017 77.2391 97.9432 77.6634 97.8977C78.1747 97.8447 78.5895 97.7973 78.9077 97.7557C79.2259 97.7102 79.4569 97.642 79.6009 97.5511C79.7486 97.4564 79.8224 97.3106 79.8224 97.1136V97.0795C79.8224 96.6515 79.6955 96.3201 79.4418 96.0852C79.188 95.8504 78.8224 95.733 78.3452 95.733C77.8414 95.733 77.4418 95.8428 77.1463 96.0625C76.8546 96.2822 76.6577 96.5417 76.5554 96.8409L74.6349 96.5682C74.7865 96.0379 75.0365 95.5947 75.3849 95.2386C75.7334 94.8788 76.1596 94.6098 76.6634 94.4318C77.1671 94.25 77.724 94.1591 78.3338 94.1591C78.7543 94.1591 79.1728 94.2083 79.5895 94.3068C80.0062 94.4053 80.3868 94.5682 80.7315 94.7955C81.0762 95.0189 81.3527 95.3239 81.5611 95.7102C81.7732 96.0966 81.8793 96.5795 81.8793 97.1591V103H79.902V101.801H79.8338C79.7088 102.044 79.5327 102.271 79.3054 102.483C79.0819 102.691 78.7997 102.86 78.4588 102.989C78.1217 103.114 77.7259 103.176 77.2713 103.176ZM77.8054 101.665C78.2183 101.665 78.5762 101.583 78.8793 101.42C79.1823 101.254 79.4152 101.034 79.5781 100.761C79.7448 100.489 79.8281 100.191 79.8281 99.8693V98.8409C79.7637 98.8939 79.6539 98.9432 79.4986 98.9886C79.3471 99.0341 79.1766 99.0739 78.9872 99.108C78.7978 99.142 78.6103 99.1723 78.4247 99.1989C78.2391 99.2254 78.0781 99.2481 77.9418 99.267C77.6349 99.3087 77.3603 99.3769 77.1179 99.4716C76.8755 99.5663 76.6842 99.6989 76.544 99.8693C76.4039 100.036 76.3338 100.252 76.3338 100.517C76.3338 100.896 76.4721 101.182 76.7486 101.375C77.0251 101.568 77.3774 101.665 77.8054 101.665ZM86.0043 91.3636V103H83.9474V91.3636H86.0043ZM92.0881 103V94.2727H94.054V95.7557H94.1562C94.3381 95.2557 94.6392 94.8655 95.0597 94.5852C95.4801 94.3011 95.982 94.1591 96.5653 94.1591C97.1562 94.1591 97.6544 94.303 98.0597 94.5909C98.4688 94.875 98.7566 95.2633 98.9233 95.7557H99.0142C99.2074 95.2708 99.5331 94.8845 99.9915 94.5966C100.454 94.3049 101.001 94.1591 101.634 94.1591C102.437 94.1591 103.092 94.4129 103.599 94.9205C104.107 95.428 104.361 96.1686 104.361 97.142V103H102.298V97.4602C102.298 96.9186 102.154 96.5227 101.866 96.2727C101.579 96.0189 101.226 95.892 100.81 95.892C100.313 95.892 99.9252 96.0473 99.6449 96.358C99.3684 96.6648 99.2301 97.0644 99.2301 97.5568V103H97.2131V97.375C97.2131 96.9242 97.0767 96.5644 96.804 96.2955C96.535 96.0265 96.1828 95.892 95.7472 95.892C95.4517 95.892 95.1828 95.9678 94.9403 96.1193C94.6979 96.267 94.5047 96.4773 94.3608 96.75C94.2169 97.0189 94.1449 97.3333 94.1449 97.6932V103H92.0881ZM110.311 103.17C109.436 103.17 108.68 102.989 108.044 102.625C107.411 102.258 106.925 101.739 106.584 101.068C106.243 100.394 106.072 99.6004 106.072 98.6875C106.072 97.7898 106.243 97.0019 106.584 96.3239C106.929 95.642 107.41 95.1117 108.027 94.733C108.644 94.3504 109.37 94.1591 110.203 94.1591C110.741 94.1591 111.249 94.2462 111.726 94.4205C112.207 94.5909 112.631 94.8561 112.999 95.2159C113.37 95.5758 113.661 96.0341 113.874 96.5909C114.086 97.1439 114.192 97.803 114.192 98.5682V99.1989H107.038V97.8125H112.22C112.216 97.4186 112.131 97.0682 111.964 96.7614C111.798 96.4508 111.565 96.2064 111.266 96.0284C110.97 95.8504 110.625 95.7614 110.232 95.7614C109.811 95.7614 109.442 95.8636 109.124 96.0682C108.805 96.2689 108.557 96.5341 108.379 96.8636C108.205 97.1894 108.116 97.5473 108.112 97.9375V99.1477C108.112 99.6553 108.205 100.091 108.391 100.455C108.576 100.814 108.836 101.091 109.169 101.284C109.502 101.473 109.893 101.568 110.339 101.568C110.639 101.568 110.91 101.527 111.152 101.443C111.394 101.356 111.605 101.229 111.783 101.062C111.961 100.896 112.095 100.689 112.186 100.443L114.107 100.659C113.985 101.167 113.754 101.61 113.413 101.989C113.076 102.364 112.644 102.655 112.118 102.864C111.591 103.068 110.989 103.17 110.311 103.17ZM119.795 103.17C118.92 103.17 118.165 102.989 117.528 102.625C116.896 102.258 116.409 101.739 116.068 101.068C115.727 100.394 115.557 99.6004 115.557 98.6875C115.557 97.7898 115.727 97.0019 116.068 96.3239C116.413 95.642 116.894 95.1117 117.511 94.733C118.129 94.3504 118.854 94.1591 119.688 94.1591C120.225 94.1591 120.733 94.2462 121.21 94.4205C121.691 94.5909 122.116 94.8561 122.483 95.2159C122.854 95.5758 123.146 96.0341 123.358 96.5909C123.57 97.1439 123.676 97.803 123.676 98.5682V99.1989H116.523V97.8125H121.705C121.701 97.4186 121.616 97.0682 121.449 96.7614C121.282 96.4508 121.049 96.2064 120.75 96.0284C120.455 95.8504 120.11 95.7614 119.716 95.7614C119.295 95.7614 118.926 95.8636 118.608 96.0682C118.29 96.2689 118.042 96.5341 117.864 96.8636C117.689 97.1894 117.6 97.5473 117.597 97.9375V99.1477C117.597 99.6553 117.689 100.091 117.875 100.455C118.061 100.814 118.32 101.091 118.653 101.284C118.987 101.473 119.377 101.568 119.824 101.568C120.123 101.568 120.394 101.527 120.636 101.443C120.879 101.356 121.089 101.229 121.267 101.062C121.445 100.896 121.58 100.689 121.67 100.443L123.591 100.659C123.47 101.167 123.239 101.61 122.898 101.989C122.561 102.364 122.129 102.655 121.602 102.864C121.076 103.068 120.473 103.17 119.795 103.17ZM129.774 94.2727V95.8636H124.757V94.2727H129.774ZM125.996 92.1818H128.053V100.375C128.053 100.652 128.094 100.864 128.178 101.011C128.265 101.155 128.378 101.254 128.518 101.307C128.659 101.36 128.814 101.386 128.984 101.386C129.113 101.386 129.231 101.377 129.337 101.358C129.446 101.339 129.53 101.322 129.587 101.307L129.933 102.915C129.823 102.953 129.666 102.994 129.462 103.04C129.261 103.085 129.015 103.112 128.723 103.119C128.208 103.134 127.744 103.057 127.331 102.886C126.918 102.712 126.59 102.443 126.348 102.08C126.109 101.716 125.992 101.261 125.996 100.716V92.1818ZM131.494 103V94.2727H133.551V103H131.494ZM132.528 93.0341C132.203 93.0341 131.922 92.9261 131.688 92.7102C131.453 92.4905 131.335 92.2273 131.335 91.9205C131.335 91.6098 131.453 91.3466 131.688 91.1307C131.922 90.911 132.203 90.8011 132.528 90.8011C132.858 90.8011 133.138 90.911 133.369 91.1307C133.604 91.3466 133.722 91.6098 133.722 91.9205C133.722 92.2273 133.604 92.4905 133.369 92.7102C133.138 92.9261 132.858 93.0341 132.528 93.0341ZM137.723 97.8864V103H135.666V94.2727H137.632V95.7557H137.734C137.935 95.267 138.255 94.8788 138.695 94.5909C139.138 94.303 139.685 94.1591 140.337 94.1591C140.939 94.1591 141.464 94.2879 141.911 94.5455C142.361 94.803 142.71 95.1761 142.956 95.6648C143.206 96.1534 143.329 96.7462 143.325 97.4432V103H141.268V97.7614C141.268 97.178 141.117 96.7216 140.814 96.392C140.515 96.0625 140.1 95.8977 139.57 95.8977C139.21 95.8977 138.89 95.9773 138.609 96.1364C138.333 96.2917 138.115 96.517 137.956 96.8125C137.801 97.108 137.723 97.4659 137.723 97.8864ZM149.212 106.455C148.473 106.455 147.839 106.354 147.308 106.153C146.778 105.956 146.352 105.691 146.03 105.358C145.708 105.025 145.484 104.655 145.359 104.25L147.212 103.801C147.295 103.972 147.416 104.14 147.575 104.307C147.734 104.477 147.948 104.617 148.217 104.727C148.49 104.841 148.833 104.898 149.246 104.898C149.829 104.898 150.312 104.756 150.695 104.472C151.077 104.191 151.268 103.729 151.268 103.085V101.432H151.166C151.06 101.644 150.905 101.862 150.7 102.085C150.5 102.309 150.232 102.496 149.899 102.648C149.57 102.799 149.155 102.875 148.655 102.875C147.984 102.875 147.376 102.718 146.831 102.403C146.289 102.085 145.857 101.612 145.536 100.983C145.217 100.35 145.058 99.5587 145.058 98.608C145.058 97.6496 145.217 96.8409 145.536 96.1818C145.857 95.5189 146.291 95.017 146.837 94.6761C147.382 94.3314 147.99 94.1591 148.661 94.1591C149.172 94.1591 149.592 94.2462 149.922 94.4205C150.255 94.5909 150.52 94.7973 150.717 95.0398C150.914 95.2784 151.064 95.5038 151.166 95.7159H151.28V94.2727H153.308V103.142C153.308 103.888 153.13 104.506 152.774 104.994C152.418 105.483 151.931 105.848 151.314 106.091C150.696 106.333 149.996 106.455 149.212 106.455ZM149.229 101.261C149.664 101.261 150.036 101.155 150.342 100.943C150.649 100.731 150.882 100.426 151.041 100.028C151.2 99.6307 151.28 99.1534 151.28 98.5966C151.28 98.0473 151.2 97.5663 151.041 97.1534C150.886 96.7405 150.655 96.4205 150.348 96.1932C150.045 95.9621 149.672 95.8466 149.229 95.8466C148.77 95.8466 148.388 95.9659 148.081 96.2045C147.774 96.4432 147.543 96.7708 147.388 97.1875C147.232 97.6004 147.155 98.0701 147.155 98.5966C147.155 99.1307 147.232 99.5985 147.388 100C147.547 100.398 147.78 100.708 148.087 100.932C148.397 101.152 148.778 101.261 149.229 101.261ZM162.314 96.5795L160.439 96.7841C160.386 96.5947 160.293 96.4167 160.161 96.25C160.032 96.0833 159.857 95.9489 159.638 95.8466C159.418 95.7443 159.149 95.6932 158.831 95.6932C158.403 95.6932 158.043 95.786 157.751 95.9716C157.464 96.1572 157.321 96.3977 157.325 96.6932C157.321 96.947 157.414 97.1534 157.604 97.3125C157.797 97.4716 158.115 97.6023 158.558 97.7045L160.047 98.0227C160.873 98.2008 161.486 98.483 161.888 98.8693C162.293 99.2557 162.498 99.7614 162.501 100.386C162.498 100.936 162.337 101.42 162.018 101.841C161.704 102.258 161.267 102.583 160.706 102.818C160.145 103.053 159.501 103.17 158.774 103.17C157.706 103.17 156.846 102.947 156.195 102.5C155.543 102.049 155.155 101.422 155.03 100.619L157.036 100.426C157.126 100.82 157.32 101.117 157.615 101.318C157.911 101.519 158.295 101.619 158.768 101.619C159.257 101.619 159.649 101.519 159.945 101.318C160.244 101.117 160.393 100.869 160.393 100.574C160.393 100.324 160.297 100.117 160.104 99.9545C159.914 99.7917 159.619 99.6667 159.217 99.5795L157.729 99.267C156.892 99.0928 156.272 98.7992 155.871 98.3864C155.469 97.9697 155.27 97.4432 155.274 96.8068C155.27 96.2689 155.416 95.803 155.712 95.4091C156.011 95.0114 156.426 94.7045 156.956 94.4886C157.49 94.2689 158.106 94.1591 158.803 94.1591C159.825 94.1591 160.63 94.3769 161.217 94.8125C161.808 95.2481 162.174 95.8371 162.314 96.5795Z" fill="#04A3FF"/>
<path d="M172.663 94.2727V95.4091H168.141V94.2727H172.663ZM169.459 92.1818H170.8V100.5C170.8 100.879 170.855 101.163 170.964 101.352C171.078 101.538 171.222 101.663 171.396 101.727C171.574 101.788 171.762 101.818 171.959 101.818C172.107 101.818 172.228 101.811 172.322 101.795C172.417 101.777 172.493 101.761 172.55 101.75L172.822 102.955C172.732 102.989 172.605 103.023 172.442 103.057C172.279 103.095 172.072 103.114 171.822 103.114C171.444 103.114 171.072 103.032 170.709 102.869C170.349 102.706 170.05 102.458 169.811 102.125C169.576 101.792 169.459 101.371 169.459 100.864V92.1818ZM178.132 103.182C177.344 103.182 176.653 102.994 176.058 102.619C175.467 102.244 175.005 101.72 174.672 101.045C174.342 100.371 174.178 99.5833 174.178 98.6818C174.178 97.7727 174.342 96.9792 174.672 96.3011C175.005 95.6231 175.467 95.0966 176.058 94.7216C176.653 94.3466 177.344 94.1591 178.132 94.1591C178.92 94.1591 179.609 94.3466 180.2 94.7216C180.795 95.0966 181.257 95.6231 181.587 96.3011C181.92 96.9792 182.087 97.7727 182.087 98.6818C182.087 99.5833 181.92 100.371 181.587 101.045C181.257 101.72 180.795 102.244 180.2 102.619C179.609 102.994 178.92 103.182 178.132 103.182ZM178.132 101.977C178.731 101.977 179.223 101.824 179.609 101.517C179.996 101.21 180.282 100.807 180.467 100.307C180.653 99.8068 180.746 99.2652 180.746 98.6818C180.746 98.0985 180.653 97.5549 180.467 97.0511C180.282 96.5473 179.996 96.1402 179.609 95.8295C179.223 95.5189 178.731 95.3636 178.132 95.3636C177.534 95.3636 177.041 95.5189 176.655 95.8295C176.268 96.1402 175.982 96.5473 175.797 97.0511C175.611 97.5549 175.518 98.0985 175.518 98.6818C175.518 99.2652 175.611 99.8068 175.797 100.307C175.982 100.807 176.268 101.21 176.655 101.517C177.041 101.824 177.534 101.977 178.132 101.977ZM191.929 103.182C191.202 103.182 190.56 102.998 190.003 102.631C189.446 102.259 189.01 101.737 188.696 101.062C188.382 100.384 188.224 99.5833 188.224 98.6591C188.224 97.7424 188.382 96.947 188.696 96.2727C189.01 95.5985 189.448 95.0777 190.009 94.7102C190.569 94.3428 191.217 94.1591 191.952 94.1591C192.52 94.1591 192.969 94.2538 193.298 94.4432C193.632 94.6288 193.885 94.8409 194.06 95.0795C194.238 95.3144 194.376 95.5076 194.474 95.6591H194.588V91.3636H195.929V103H194.634V101.659H194.474C194.376 101.818 194.236 102.019 194.054 102.261C193.872 102.5 193.613 102.714 193.276 102.903C192.938 103.089 192.49 103.182 191.929 103.182ZM192.111 101.977C192.649 101.977 193.103 101.837 193.474 101.557C193.846 101.273 194.128 100.881 194.321 100.381C194.514 99.8769 194.611 99.2955 194.611 98.6364C194.611 97.9848 194.516 97.4148 194.327 96.9261C194.137 96.4337 193.857 96.0511 193.486 95.7784C193.115 95.5019 192.656 95.3636 192.111 95.3636C191.543 95.3636 191.069 95.5095 190.69 95.8011C190.315 96.089 190.033 96.4811 189.844 96.9773C189.658 97.4697 189.565 98.0227 189.565 98.6364C189.565 99.2576 189.66 99.822 189.849 100.33C190.043 100.833 190.327 101.235 190.702 101.534C191.08 101.83 191.55 101.977 192.111 101.977ZM198.571 103V94.2727H199.912V103H198.571ZM199.253 92.8182C198.991 92.8182 198.766 92.7292 198.577 92.5511C198.391 92.3731 198.298 92.1591 198.298 91.9091C198.298 91.6591 198.391 91.4451 198.577 91.267C198.766 91.089 198.991 91 199.253 91C199.514 91 199.738 91.089 199.923 91.267C200.113 91.4451 200.207 91.6591 200.207 91.9091C200.207 92.1591 200.113 92.3731 199.923 92.5511C199.738 92.7292 199.514 92.8182 199.253 92.8182ZM208.55 96.2273L207.345 96.5682C207.269 96.3674 207.158 96.1723 207.01 95.983C206.866 95.7898 206.669 95.6307 206.419 95.5057C206.169 95.3807 205.849 95.3182 205.459 95.3182C204.925 95.3182 204.48 95.4413 204.124 95.6875C203.771 95.9299 203.595 96.2386 203.595 96.6136C203.595 96.947 203.716 97.2102 203.959 97.4034C204.201 97.5966 204.58 97.7576 205.095 97.8864L206.391 98.2045C207.171 98.3939 207.752 98.6837 208.135 99.0739C208.518 99.4602 208.709 99.9583 208.709 100.568C208.709 101.068 208.565 101.515 208.277 101.909C207.993 102.303 207.595 102.614 207.084 102.841C206.572 103.068 205.978 103.182 205.3 103.182C204.41 103.182 203.673 102.989 203.089 102.602C202.506 102.216 202.137 101.652 201.982 100.909L203.254 100.591C203.375 101.061 203.605 101.413 203.942 101.648C204.283 101.883 204.728 102 205.277 102C205.902 102 206.398 101.867 206.766 101.602C207.137 101.333 207.322 101.011 207.322 100.636C207.322 100.333 207.216 100.08 207.004 99.875C206.792 99.6667 206.466 99.5114 206.027 99.4091L204.572 99.0682C203.773 98.8788 203.186 98.5852 202.811 98.1875C202.44 97.786 202.254 97.2841 202.254 96.6818C202.254 96.1894 202.393 95.7538 202.669 95.375C202.949 94.9962 203.33 94.6989 203.811 94.483C204.296 94.267 204.845 94.1591 205.459 94.1591C206.322 94.1591 207 94.3485 207.493 94.7273C207.989 95.1061 208.341 95.6061 208.55 96.2273ZM214.273 103.182C213.455 103.182 212.75 102.989 212.159 102.602C211.568 102.216 211.114 101.684 210.795 101.006C210.477 100.328 210.318 99.553 210.318 98.6818C210.318 97.7955 210.481 97.0133 210.807 96.3352C211.136 95.6534 211.595 95.1212 212.182 94.7386C212.773 94.3523 213.462 94.1591 214.25 94.1591C214.864 94.1591 215.417 94.2727 215.909 94.5C216.402 94.7273 216.805 95.0455 217.119 95.4545C217.434 95.8636 217.629 96.3409 217.705 96.8864H216.364C216.261 96.4886 216.034 96.1364 215.682 95.8295C215.333 95.5189 214.864 95.3636 214.273 95.3636C213.75 95.3636 213.292 95.5 212.898 95.7727C212.508 96.0417 212.203 96.4223 211.983 96.9148C211.767 97.4034 211.659 97.9773 211.659 98.6364C211.659 99.3106 211.765 99.8977 211.977 100.398C212.193 100.898 212.496 101.286 212.886 101.562C213.28 101.839 213.742 101.977 214.273 101.977C214.621 101.977 214.938 101.917 215.222 101.795C215.506 101.674 215.746 101.5 215.943 101.273C216.14 101.045 216.28 100.773 216.364 100.455H217.705C217.629 100.97 217.441 101.434 217.142 101.847C216.847 102.256 216.455 102.581 215.966 102.824C215.481 103.062 214.917 103.182 214.273 103.182ZM225.165 99.4318V94.2727H226.506V103H225.165V101.523H225.074C224.869 101.966 224.551 102.343 224.119 102.653C223.688 102.96 223.142 103.114 222.483 103.114C221.938 103.114 221.453 102.994 221.028 102.756C220.604 102.513 220.271 102.15 220.028 101.665C219.786 101.176 219.665 100.561 219.665 99.8182V94.2727H221.006V99.7273C221.006 100.364 221.184 100.871 221.54 101.25C221.9 101.629 222.358 101.818 222.915 101.818C223.248 101.818 223.587 101.733 223.932 101.562C224.28 101.392 224.572 101.131 224.807 100.778C225.045 100.426 225.165 99.9773 225.165 99.4318ZM235.143 96.2273L233.939 96.5682C233.863 96.3674 233.751 96.1723 233.604 95.983C233.46 95.7898 233.263 95.6307 233.013 95.5057C232.763 95.3807 232.443 95.3182 232.053 95.3182C231.518 95.3182 231.073 95.4413 230.717 95.6875C230.365 95.9299 230.189 96.2386 230.189 96.6136C230.189 96.947 230.31 97.2102 230.553 97.4034C230.795 97.5966 231.174 97.7576 231.689 97.8864L232.984 98.2045C233.765 98.3939 234.346 98.6837 234.729 99.0739C235.111 99.4602 235.303 99.9583 235.303 100.568C235.303 101.068 235.159 101.515 234.871 101.909C234.587 102.303 234.189 102.614 233.678 102.841C233.166 103.068 232.571 103.182 231.893 103.182C231.003 103.182 230.267 102.989 229.683 102.602C229.1 102.216 228.731 101.652 228.575 100.909L229.848 100.591C229.969 101.061 230.198 101.413 230.536 101.648C230.876 101.883 231.321 102 231.871 102C232.496 102 232.992 101.867 233.359 101.602C233.731 101.333 233.916 101.011 233.916 100.636C233.916 100.333 233.81 100.08 233.598 99.875C233.386 99.6667 233.06 99.5114 232.621 99.4091L231.166 99.0682C230.367 98.8788 229.78 98.5852 229.405 98.1875C229.034 97.786 228.848 97.2841 228.848 96.6818C228.848 96.1894 228.986 95.7538 229.263 95.375C229.543 94.9962 229.924 94.6989 230.405 94.483C230.89 94.267 231.439 94.1591 232.053 94.1591C232.916 94.1591 233.594 94.3485 234.087 94.7273C234.583 95.1061 234.935 95.6061 235.143 96.2273ZM243.503 96.2273L242.298 96.5682C242.223 96.3674 242.111 96.1723 241.963 95.983C241.819 95.7898 241.622 95.6307 241.372 95.5057C241.122 95.3807 240.802 95.3182 240.412 95.3182C239.878 95.3182 239.433 95.4413 239.077 95.6875C238.724 95.9299 238.548 96.2386 238.548 96.6136C238.548 96.947 238.67 97.2102 238.912 97.4034C239.154 97.5966 239.533 97.7576 240.048 97.8864L241.344 98.2045C242.124 98.3939 242.705 98.6837 243.088 99.0739C243.471 99.4602 243.662 99.9583 243.662 100.568C243.662 101.068 243.518 101.515 243.23 101.909C242.946 102.303 242.548 102.614 242.037 102.841C241.526 103.068 240.931 103.182 240.253 103.182C239.363 103.182 238.626 102.989 238.043 102.602C237.459 102.216 237.09 101.652 236.935 100.909L238.207 100.591C238.329 101.061 238.558 101.413 238.895 101.648C239.236 101.883 239.681 102 240.23 102C240.855 102 241.351 101.867 241.719 101.602C242.09 101.333 242.276 101.011 242.276 100.636C242.276 100.333 242.17 100.08 241.957 99.875C241.745 99.6667 241.42 99.5114 240.98 99.4091L239.526 99.0682C238.726 98.8788 238.139 98.5852 237.764 98.1875C237.393 97.786 237.207 97.2841 237.207 96.6818C237.207 96.1894 237.346 95.7538 237.622 95.375C237.902 94.9962 238.283 94.6989 238.764 94.483C239.249 94.267 239.798 94.1591 240.412 94.1591C241.276 94.1591 241.954 94.3485 242.446 94.7273C242.942 95.1061 243.295 95.6061 243.503 96.2273ZM253.976 94.2727V95.4091H249.453V94.2727H253.976ZM250.771 92.1818H252.112V100.5C252.112 100.879 252.167 101.163 252.277 101.352C252.391 101.538 252.535 101.663 252.709 101.727C252.887 101.788 253.074 101.818 253.271 101.818C253.419 101.818 253.54 101.811 253.635 101.795C253.73 101.777 253.805 101.761 253.862 101.75L254.135 102.955C254.044 102.989 253.917 103.023 253.754 103.057C253.591 103.095 253.385 103.114 253.135 103.114C252.756 103.114 252.385 103.032 252.021 102.869C251.661 102.706 251.362 102.458 251.124 102.125C250.889 101.792 250.771 101.371 250.771 100.864V92.1818ZM257.521 97.75V103H256.18V91.3636H257.521V95.6364H257.635C257.839 95.1856 258.146 94.8277 258.555 94.5625C258.968 94.2936 259.518 94.1591 260.203 94.1591C260.798 94.1591 261.319 94.2784 261.766 94.517C262.213 94.7519 262.559 95.1136 262.805 95.6023C263.055 96.0871 263.18 96.7045 263.18 97.4545V103H261.839V97.5455C261.839 96.8523 261.66 96.3163 261.3 95.9375C260.944 95.5549 260.449 95.3636 259.817 95.3636C259.377 95.3636 258.983 95.4564 258.635 95.642C258.29 95.8277 258.018 96.0985 257.817 96.4545C257.62 96.8106 257.521 97.2424 257.521 97.75ZM269.293 103.182C268.452 103.182 267.726 102.996 267.116 102.625C266.51 102.25 266.043 101.727 265.713 101.057C265.387 100.383 265.224 99.5985 265.224 98.7045C265.224 97.8106 265.387 97.0227 265.713 96.3409C266.043 95.6553 266.501 95.1212 267.088 94.7386C267.679 94.3523 268.368 94.1591 269.156 94.1591C269.611 94.1591 270.06 94.2348 270.503 94.3864C270.946 94.5379 271.349 94.7841 271.713 95.125C272.077 95.4621 272.366 95.9091 272.582 96.4659C272.798 97.0227 272.906 97.7083 272.906 98.5227V99.0909H266.179V97.9318H271.543C271.543 97.4394 271.444 97 271.247 96.6136C271.054 96.2273 270.777 95.9223 270.418 95.6989C270.062 95.4754 269.641 95.3636 269.156 95.3636C268.622 95.3636 268.16 95.4962 267.77 95.7614C267.384 96.0227 267.086 96.3636 266.878 96.7841C266.67 97.2045 266.565 97.6553 266.565 98.1364V98.9091C266.565 99.5682 266.679 100.127 266.906 100.585C267.137 101.04 267.457 101.386 267.866 101.625C268.276 101.86 268.751 101.977 269.293 101.977C269.645 101.977 269.963 101.928 270.247 101.83C270.535 101.727 270.783 101.576 270.991 101.375C271.2 101.17 271.361 100.917 271.474 100.614L272.77 100.977C272.634 101.417 272.404 101.803 272.082 102.136C271.76 102.466 271.363 102.723 270.889 102.909C270.416 103.091 269.884 103.182 269.293 103.182ZM279.446 103V94.2727H280.787V103H279.446ZM280.128 92.8182C279.866 92.8182 279.641 92.7292 279.452 92.5511C279.266 92.3731 279.173 92.1591 279.173 91.9091C279.173 91.6591 279.266 91.4451 279.452 91.267C279.641 91.089 279.866 91 280.128 91C280.389 91 280.613 91.089 280.798 91.267C280.988 91.4451 281.082 91.6591 281.082 91.9091C281.082 92.1591 280.988 92.3731 280.798 92.5511C280.613 92.7292 280.389 92.8182 280.128 92.8182ZM284.584 97.75V103H283.243V94.2727H284.538V95.6364H284.652C284.857 95.1932 285.167 94.8371 285.584 94.5682C286 94.2955 286.538 94.1591 287.197 94.1591C287.788 94.1591 288.305 94.2803 288.749 94.5227C289.192 94.7614 289.536 95.125 289.783 95.6136C290.029 96.0985 290.152 96.7121 290.152 97.4545V103H288.811V97.5455C288.811 96.8598 288.633 96.3258 288.277 95.9432C287.921 95.5568 287.432 95.3636 286.811 95.3636C286.383 95.3636 286 95.4564 285.663 95.642C285.33 95.8277 285.067 96.0985 284.874 96.4545C284.68 96.8106 284.584 97.2424 284.584 97.75ZM293.943 97.75V103H292.602V94.2727H293.898V95.6364H294.011C294.216 95.1932 294.527 94.8371 294.943 94.5682C295.36 94.2955 295.898 94.1591 296.557 94.1591C297.148 94.1591 297.665 94.2803 298.108 94.5227C298.551 94.7614 298.896 95.125 299.142 95.6136C299.388 96.0985 299.511 96.7121 299.511 97.4545V103H298.17V97.5455C298.17 96.8598 297.992 96.3258 297.636 95.9432C297.28 95.5568 296.792 95.3636 296.17 95.3636C295.742 95.3636 295.36 95.4564 295.023 95.642C294.689 95.8277 294.426 96.0985 294.233 96.4545C294.04 96.8106 293.943 97.2424 293.943 97.75ZM305.621 103.182C304.78 103.182 304.054 102.996 303.445 102.625C302.839 102.25 302.371 101.727 302.041 101.057C301.715 100.383 301.553 99.5985 301.553 98.7045C301.553 97.8106 301.715 97.0227 302.041 96.3409C302.371 95.6553 302.829 95.1212 303.416 94.7386C304.007 94.3523 304.696 94.1591 305.484 94.1591C305.939 94.1591 306.388 94.2348 306.831 94.3864C307.274 94.5379 307.678 94.7841 308.041 95.125C308.405 95.4621 308.695 95.9091 308.911 96.4659C309.126 97.0227 309.234 97.7083 309.234 98.5227V99.0909H302.507V97.9318H307.871C307.871 97.4394 307.772 97 307.575 96.6136C307.382 96.2273 307.106 95.9223 306.746 95.6989C306.39 95.4754 305.969 95.3636 305.484 95.3636C304.95 95.3636 304.488 95.4962 304.098 95.7614C303.712 96.0227 303.414 96.3636 303.206 96.7841C302.998 97.2045 302.893 97.6553 302.893 98.1364V98.9091C302.893 99.5682 303.007 100.127 303.234 100.585C303.465 101.04 303.786 101.386 304.195 101.625C304.604 101.86 305.079 101.977 305.621 101.977C305.973 101.977 306.291 101.928 306.575 101.83C306.863 101.727 307.111 101.576 307.32 101.375C307.528 101.17 307.689 100.917 307.803 100.614L309.098 100.977C308.962 101.417 308.732 101.803 308.411 102.136C308.089 102.466 307.691 102.723 307.217 102.909C306.744 103.091 306.212 103.182 305.621 103.182ZM311.274 103V94.2727H312.57V95.5909H312.661C312.82 95.1591 313.107 94.8087 313.524 94.5398C313.941 94.2708 314.411 94.1364 314.933 94.1364C315.032 94.1364 315.155 94.1383 315.303 94.142C315.45 94.1458 315.562 94.1515 315.638 94.1591V95.5227C315.592 95.5114 315.488 95.4943 315.325 95.4716C315.166 95.4451 314.998 95.4318 314.82 95.4318C314.395 95.4318 314.017 95.5208 313.683 95.6989C313.354 95.8731 313.092 96.1155 312.899 96.4261C312.71 96.733 312.615 97.0833 312.615 97.4773V103H311.274ZM31.2045 122L28.5455 113.273H29.9545L31.8409 119.955H31.9318L33.7955 113.273H35.2273L37.0682 119.932H37.1591L39.0455 113.273H40.4545L37.7955 122H36.4773L34.5682 115.295H34.4318L32.5227 122H31.2045ZM45.4759 122.182C44.688 122.182 43.9967 121.994 43.402 121.619C42.8111 121.244 42.349 120.72 42.0156 120.045C41.6861 119.371 41.5213 118.583 41.5213 117.682C41.5213 116.773 41.6861 115.979 42.0156 115.301C42.349 114.623 42.8111 114.097 43.402 113.722C43.9967 113.347 44.688 113.159 45.4759 113.159C46.2637 113.159 46.9531 113.347 47.544 113.722C48.1387 114.097 48.6009 114.623 48.9304 115.301C49.2637 115.979 49.4304 116.773 49.4304 117.682C49.4304 118.583 49.2637 119.371 48.9304 120.045C48.6009 120.72 48.1387 121.244 47.544 121.619C46.9531 121.994 46.2637 122.182 45.4759 122.182ZM45.4759 120.977C46.0743 120.977 46.5668 120.824 46.9531 120.517C47.3395 120.21 47.6255 119.807 47.8111 119.307C47.9967 118.807 48.0895 118.265 48.0895 117.682C48.0895 117.098 47.9967 116.555 47.8111 116.051C47.6255 115.547 47.3395 115.14 46.9531 114.83C46.5668 114.519 46.0743 114.364 45.4759 114.364C44.8774 114.364 44.3849 114.519 43.9986 114.83C43.6122 115.14 43.3262 115.547 43.1406 116.051C42.955 116.555 42.8622 117.098 42.8622 117.682C42.8622 118.265 42.955 118.807 43.1406 119.307C43.3262 119.807 43.6122 120.21 43.9986 120.517C44.3849 120.824 44.8774 120.977 45.4759 120.977ZM51.4773 122V113.273H52.7727V114.591H52.8636C53.0227 114.159 53.3106 113.809 53.7273 113.54C54.1439 113.271 54.6136 113.136 55.1364 113.136C55.2348 113.136 55.358 113.138 55.5057 113.142C55.6534 113.146 55.7652 113.152 55.8409 113.159V114.523C55.7955 114.511 55.6913 114.494 55.5284 114.472C55.3693 114.445 55.2008 114.432 55.0227 114.432C54.5985 114.432 54.2197 114.521 53.8864 114.699C53.5568 114.873 53.2955 115.116 53.1023 115.426C52.9129 115.733 52.8182 116.083 52.8182 116.477V122H51.4773ZM58.6804 118.818L58.6577 117.159H58.9304L62.7486 113.273H64.4077L60.3395 117.386H60.2259L58.6804 118.818ZM57.4304 122V110.364H58.7713V122H57.4304ZM62.9759 122L59.5668 117.682L60.5213 116.75L64.6804 122H62.9759ZM66.1335 122V113.273H67.4744V122H66.1335ZM66.8153 111.818C66.554 111.818 66.3286 111.729 66.1392 111.551C65.9536 111.373 65.8608 111.159 65.8608 110.909C65.8608 110.659 65.9536 110.445 66.1392 110.267C66.3286 110.089 66.554 110 66.8153 110C67.0767 110 67.3002 110.089 67.4858 110.267C67.6752 110.445 67.7699 110.659 67.7699 110.909C67.7699 111.159 67.6752 111.373 67.4858 111.551C67.3002 111.729 67.0767 111.818 66.8153 111.818ZM71.2713 116.75V122H69.9304V113.273H71.2259V114.636H71.3395C71.544 114.193 71.8546 113.837 72.2713 113.568C72.688 113.295 73.2259 113.159 73.8849 113.159C74.4759 113.159 74.9929 113.28 75.4361 113.523C75.8793 113.761 76.224 114.125 76.4702 114.614C76.7164 115.098 76.8395 115.712 76.8395 116.455V122H75.4986V116.545C75.4986 115.86 75.3205 115.326 74.9645 114.943C74.6084 114.557 74.1198 114.364 73.4986 114.364C73.0705 114.364 72.688 114.456 72.3509 114.642C72.0175 114.828 71.7543 115.098 71.5611 115.455C71.3679 115.811 71.2713 116.242 71.2713 116.75ZM82.8125 125.455C82.1648 125.455 81.608 125.371 81.142 125.205C80.6761 125.042 80.2879 124.826 79.9773 124.557C79.6705 124.292 79.4261 124.008 79.2443 123.705L80.3125 122.955C80.4337 123.114 80.5871 123.295 80.7727 123.5C80.9583 123.708 81.2121 123.888 81.5341 124.04C81.8598 124.195 82.286 124.273 82.8125 124.273C83.517 124.273 84.0985 124.102 84.5568 123.761C85.0152 123.42 85.2443 122.886 85.2443 122.159V120.386H85.1307C85.0322 120.545 84.892 120.742 84.7102 120.977C84.5322 121.208 84.2746 121.415 83.9375 121.597C83.6042 121.775 83.1534 121.864 82.5852 121.864C81.8807 121.864 81.2481 121.697 80.6875 121.364C80.1307 121.03 79.6894 120.545 79.3636 119.909C79.0417 119.273 78.8807 118.5 78.8807 117.591C78.8807 116.697 79.0379 115.919 79.3523 115.256C79.6667 114.589 80.1042 114.074 80.6648 113.71C81.2254 113.343 81.8731 113.159 82.608 113.159C83.1761 113.159 83.6269 113.254 83.9602 113.443C84.2973 113.629 84.5549 113.841 84.733 114.08C84.9148 114.314 85.0549 114.508 85.1534 114.659H85.2898V113.273H86.5852V122.25C86.5852 123 86.4148 123.61 86.0739 124.08C85.7367 124.553 85.2822 124.9 84.7102 125.119C84.142 125.343 83.5095 125.455 82.8125 125.455ZM82.767 120.659C83.3049 120.659 83.7595 120.536 84.1307 120.29C84.5019 120.044 84.7841 119.689 84.9773 119.227C85.1705 118.765 85.267 118.212 85.267 117.568C85.267 116.939 85.1723 116.384 84.983 115.903C84.7936 115.422 84.5133 115.045 84.142 114.773C83.7708 114.5 83.3125 114.364 82.767 114.364C82.1989 114.364 81.7254 114.508 81.3466 114.795C80.9716 115.083 80.6894 115.47 80.5 115.955C80.3144 116.439 80.2216 116.977 80.2216 117.568C80.2216 118.174 80.3163 118.71 80.5057 119.176C80.6989 119.638 80.983 120.002 81.358 120.267C81.7367 120.528 82.2064 120.659 82.767 120.659ZM95.2216 115.227L94.017 115.568C93.9413 115.367 93.8295 115.172 93.6818 114.983C93.5379 114.79 93.3409 114.631 93.0909 114.506C92.8409 114.381 92.5208 114.318 92.1307 114.318C91.5966 114.318 91.1515 114.441 90.7955 114.688C90.4432 114.93 90.267 115.239 90.267 115.614C90.267 115.947 90.3883 116.21 90.6307 116.403C90.8731 116.597 91.2519 116.758 91.767 116.886L93.0625 117.205C93.8428 117.394 94.4242 117.684 94.8068 118.074C95.1894 118.46 95.3807 118.958 95.3807 119.568C95.3807 120.068 95.2367 120.515 94.9489 120.909C94.6648 121.303 94.267 121.614 93.7557 121.841C93.2443 122.068 92.6496 122.182 91.9716 122.182C91.0814 122.182 90.3447 121.989 89.7614 121.602C89.178 121.216 88.8087 120.652 88.6534 119.909L89.9261 119.591C90.0473 120.061 90.2765 120.413 90.6136 120.648C90.9545 120.883 91.3996 121 91.9489 121C92.5739 121 93.0701 120.867 93.4375 120.602C93.8087 120.333 93.9943 120.011 93.9943 119.636C93.9943 119.333 93.8883 119.08 93.6761 118.875C93.464 118.667 93.1383 118.511 92.6989 118.409L91.2443 118.068C90.4451 117.879 89.858 117.585 89.483 117.188C89.1117 116.786 88.9261 116.284 88.9261 115.682C88.9261 115.189 89.0644 114.754 89.3409 114.375C89.6212 113.996 90.0019 113.699 90.483 113.483C90.9678 113.267 91.517 113.159 92.1307 113.159C92.9943 113.159 93.6723 113.348 94.1648 113.727C94.661 114.106 95.0133 114.606 95.2216 115.227ZM105.445 122.182C104.657 122.182 103.965 121.994 103.371 121.619C102.78 121.244 102.318 120.72 101.984 120.045C101.655 119.371 101.49 118.583 101.49 117.682C101.49 116.773 101.655 115.979 101.984 115.301C102.318 114.623 102.78 114.097 103.371 113.722C103.965 113.347 104.657 113.159 105.445 113.159C106.232 113.159 106.922 113.347 107.513 113.722C108.107 114.097 108.57 114.623 108.899 115.301C109.232 115.979 109.399 116.773 109.399 117.682C109.399 118.583 109.232 119.371 108.899 120.045C108.57 120.72 108.107 121.244 107.513 121.619C106.922 121.994 106.232 122.182 105.445 122.182ZM105.445 120.977C106.043 120.977 106.536 120.824 106.922 120.517C107.308 120.21 107.594 119.807 107.78 119.307C107.965 118.807 108.058 118.265 108.058 117.682C108.058 117.098 107.965 116.555 107.78 116.051C107.594 115.547 107.308 115.14 106.922 114.83C106.536 114.519 106.043 114.364 105.445 114.364C104.846 114.364 104.354 114.519 103.967 114.83C103.581 115.14 103.295 115.547 103.109 116.051C102.924 116.555 102.831 117.098 102.831 117.682C102.831 118.265 102.924 118.807 103.109 119.307C103.295 119.807 103.581 120.21 103.967 120.517C104.354 120.824 104.846 120.977 105.445 120.977ZM115.332 113.273V114.409H110.628V113.273H115.332ZM112.037 122V112.068C112.037 111.568 112.154 111.152 112.389 110.818C112.624 110.485 112.929 110.235 113.304 110.068C113.679 109.902 114.075 109.818 114.491 109.818C114.821 109.818 115.09 109.845 115.298 109.898C115.507 109.951 115.662 110 115.764 110.045L115.378 111.205C115.31 111.182 115.215 111.153 115.094 111.119C114.976 111.085 114.821 111.068 114.628 111.068C114.185 111.068 113.865 111.18 113.668 111.403C113.474 111.627 113.378 111.955 113.378 112.386V122H112.037ZM122.575 125.273C122.348 125.273 122.145 125.254 121.967 125.216C121.789 125.182 121.666 125.148 121.598 125.114L121.939 123.932C122.265 124.015 122.553 124.045 122.803 124.023C123.053 124 123.274 123.888 123.467 123.688C123.664 123.491 123.844 123.17 124.007 122.727L124.257 122.045L121.03 113.273H122.484L124.893 120.227H124.984L127.393 113.273H128.848L125.143 123.273C124.977 123.723 124.77 124.097 124.524 124.392C124.278 124.691 123.992 124.913 123.666 125.057C123.344 125.201 122.981 125.273 122.575 125.273ZM133.851 122.182C133.063 122.182 132.372 121.994 131.777 121.619C131.186 121.244 130.724 120.72 130.391 120.045C130.061 119.371 129.896 118.583 129.896 117.682C129.896 116.773 130.061 115.979 130.391 115.301C130.724 114.623 131.186 114.097 131.777 113.722C132.372 113.347 133.063 113.159 133.851 113.159C134.639 113.159 135.328 113.347 135.919 113.722C136.514 114.097 136.976 114.623 137.305 115.301C137.639 115.979 137.805 116.773 137.805 117.682C137.805 118.583 137.639 119.371 137.305 120.045C136.976 120.72 136.514 121.244 135.919 121.619C135.328 121.994 134.639 122.182 133.851 122.182ZM133.851 120.977C134.449 120.977 134.942 120.824 135.328 120.517C135.714 120.21 136 119.807 136.186 119.307C136.372 118.807 136.464 118.265 136.464 117.682C136.464 117.098 136.372 116.555 136.186 116.051C136 115.547 135.714 115.14 135.328 114.83C134.942 114.519 134.449 114.364 133.851 114.364C133.252 114.364 132.76 114.519 132.374 114.83C131.987 115.14 131.701 115.547 131.516 116.051C131.33 116.555 131.237 117.098 131.237 117.682C131.237 118.265 131.33 118.807 131.516 119.307C131.701 119.807 131.987 120.21 132.374 120.517C132.76 120.824 133.252 120.977 133.851 120.977ZM145.352 118.432V113.273H146.693V122H145.352V120.523H145.261C145.057 120.966 144.739 121.343 144.307 121.653C143.875 121.96 143.33 122.114 142.67 122.114C142.125 122.114 141.64 121.994 141.216 121.756C140.792 121.513 140.458 121.15 140.216 120.665C139.973 120.176 139.852 119.561 139.852 118.818V113.273H141.193V118.727C141.193 119.364 141.371 119.871 141.727 120.25C142.087 120.629 142.545 120.818 143.102 120.818C143.436 120.818 143.775 120.733 144.119 120.562C144.468 120.392 144.759 120.131 144.994 119.778C145.233 119.426 145.352 118.977 145.352 118.432ZM149.149 122V113.273H150.445V114.591H150.536C150.695 114.159 150.982 113.809 151.399 113.54C151.816 113.271 152.286 113.136 152.808 113.136C152.907 113.136 153.03 113.138 153.178 113.142C153.325 113.146 153.437 113.152 153.513 113.159V114.523C153.467 114.511 153.363 114.494 153.2 114.472C153.041 114.445 152.873 114.432 152.695 114.432C152.27 114.432 151.892 114.521 151.558 114.699C151.229 114.873 150.967 115.116 150.774 115.426C150.585 115.733 150.49 116.083 150.49 116.477V122H149.149ZM159.784 122V110.364H161.125V114.659H161.239C161.337 114.508 161.473 114.314 161.648 114.08C161.826 113.841 162.08 113.629 162.409 113.443C162.742 113.254 163.193 113.159 163.761 113.159C164.496 113.159 165.144 113.343 165.705 113.71C166.265 114.078 166.703 114.598 167.017 115.273C167.331 115.947 167.489 116.742 167.489 117.659C167.489 118.583 167.331 119.384 167.017 120.062C166.703 120.737 166.267 121.259 165.71 121.631C165.153 121.998 164.511 122.182 163.784 122.182C163.223 122.182 162.775 122.089 162.438 121.903C162.1 121.714 161.841 121.5 161.659 121.261C161.477 121.019 161.337 120.818 161.239 120.659H161.08V122H159.784ZM161.102 117.636C161.102 118.295 161.199 118.877 161.392 119.381C161.585 119.881 161.867 120.273 162.239 120.557C162.61 120.837 163.064 120.977 163.602 120.977C164.163 120.977 164.631 120.83 165.006 120.534C165.384 120.235 165.669 119.833 165.858 119.33C166.051 118.822 166.148 118.258 166.148 117.636C166.148 117.023 166.053 116.47 165.864 115.977C165.678 115.481 165.396 115.089 165.017 114.801C164.642 114.509 164.17 114.364 163.602 114.364C163.057 114.364 162.598 114.502 162.227 114.778C161.856 115.051 161.576 115.434 161.386 115.926C161.197 116.415 161.102 116.985 161.102 117.636ZM175.04 118.432V113.273H176.381V122H175.04V120.523H174.949C174.744 120.966 174.426 121.343 173.994 121.653C173.563 121.96 173.017 122.114 172.358 122.114C171.812 122.114 171.328 121.994 170.903 121.756C170.479 121.513 170.146 121.15 169.903 120.665C169.661 120.176 169.54 119.561 169.54 118.818V113.273H170.881V118.727C170.881 119.364 171.059 119.871 171.415 120.25C171.775 120.629 172.233 120.818 172.79 120.818C173.123 120.818 173.462 120.733 173.807 120.562C174.155 120.392 174.447 120.131 174.682 119.778C174.92 119.426 175.04 118.977 175.04 118.432ZM185.018 115.227L183.814 115.568C183.738 115.367 183.626 115.172 183.479 114.983C183.335 114.79 183.138 114.631 182.888 114.506C182.638 114.381 182.318 114.318 181.928 114.318C181.393 114.318 180.948 114.441 180.592 114.688C180.24 114.93 180.064 115.239 180.064 115.614C180.064 115.947 180.185 116.21 180.428 116.403C180.67 116.597 181.049 116.758 181.564 116.886L182.859 117.205C183.64 117.394 184.221 117.684 184.604 118.074C184.986 118.46 185.178 118.958 185.178 119.568C185.178 120.068 185.034 120.515 184.746 120.909C184.462 121.303 184.064 121.614 183.553 121.841C183.041 122.068 182.446 122.182 181.768 122.182C180.878 122.182 180.142 121.989 179.558 121.602C178.975 121.216 178.606 120.652 178.45 119.909L179.723 119.591C179.844 120.061 180.073 120.413 180.411 120.648C180.751 120.883 181.196 121 181.746 121C182.371 121 182.867 120.867 183.234 120.602C183.606 120.333 183.791 120.011 183.791 119.636C183.791 119.333 183.685 119.08 183.473 118.875C183.261 118.667 182.935 118.511 182.496 118.409L181.041 118.068C180.242 117.879 179.655 117.585 179.28 117.188C178.909 116.786 178.723 116.284 178.723 115.682C178.723 115.189 178.861 114.754 179.138 114.375C179.418 113.996 179.799 113.699 180.28 113.483C180.765 113.267 181.314 113.159 181.928 113.159C182.791 113.159 183.469 113.348 183.962 113.727C184.458 114.106 184.81 114.606 185.018 115.227ZM187.196 122V113.273H188.537V122H187.196ZM187.878 111.818C187.616 111.818 187.391 111.729 187.202 111.551C187.016 111.373 186.923 111.159 186.923 110.909C186.923 110.659 187.016 110.445 187.202 110.267C187.391 110.089 187.616 110 187.878 110C188.139 110 188.363 110.089 188.548 110.267C188.738 110.445 188.832 110.659 188.832 110.909C188.832 111.159 188.738 111.373 188.548 111.551C188.363 111.729 188.139 111.818 187.878 111.818ZM192.334 116.75V122H190.993V113.273H192.288V114.636H192.402C192.607 114.193 192.917 113.837 193.334 113.568C193.75 113.295 194.288 113.159 194.947 113.159C195.538 113.159 196.055 113.28 196.499 113.523C196.942 113.761 197.286 114.125 197.533 114.614C197.779 115.098 197.902 115.712 197.902 116.455V122H196.561V116.545C196.561 115.86 196.383 115.326 196.027 114.943C195.671 114.557 195.182 114.364 194.561 114.364C194.133 114.364 193.75 114.456 193.413 114.642C193.08 114.828 192.817 115.098 192.624 115.455C192.43 115.811 192.334 116.242 192.334 116.75ZM204.011 122.182C203.17 122.182 202.445 121.996 201.835 121.625C201.229 121.25 200.761 120.727 200.432 120.057C200.106 119.383 199.943 118.598 199.943 117.705C199.943 116.811 200.106 116.023 200.432 115.341C200.761 114.655 201.22 114.121 201.807 113.739C202.398 113.352 203.087 113.159 203.875 113.159C204.33 113.159 204.778 113.235 205.222 113.386C205.665 113.538 206.068 113.784 206.432 114.125C206.795 114.462 207.085 114.909 207.301 115.466C207.517 116.023 207.625 116.708 207.625 117.523V118.091H200.898V116.932H206.261C206.261 116.439 206.163 116 205.966 115.614C205.773 115.227 205.496 114.922 205.136 114.699C204.78 114.475 204.36 114.364 203.875 114.364C203.341 114.364 202.879 114.496 202.489 114.761C202.102 115.023 201.805 115.364 201.597 115.784C201.388 116.205 201.284 116.655 201.284 117.136V117.909C201.284 118.568 201.398 119.127 201.625 119.585C201.856 120.04 202.176 120.386 202.585 120.625C202.994 120.86 203.47 120.977 204.011 120.977C204.364 120.977 204.682 120.928 204.966 120.83C205.254 120.727 205.502 120.576 205.71 120.375C205.919 120.17 206.08 119.917 206.193 119.614L207.489 119.977C207.352 120.417 207.123 120.803 206.801 121.136C206.479 121.466 206.081 121.723 205.608 121.909C205.134 122.091 204.602 122.182 204.011 122.182ZM215.847 115.227L214.642 115.568C214.566 115.367 214.455 115.172 214.307 114.983C214.163 114.79 213.966 114.631 213.716 114.506C213.466 114.381 213.146 114.318 212.756 114.318C212.222 114.318 211.777 114.441 211.42 114.688C211.068 114.93 210.892 115.239 210.892 115.614C210.892 115.947 211.013 116.21 211.256 116.403C211.498 116.597 211.877 116.758 212.392 116.886L213.688 117.205C214.468 117.394 215.049 117.684 215.432 118.074C215.814 118.46 216.006 118.958 216.006 119.568C216.006 120.068 215.862 120.515 215.574 120.909C215.29 121.303 214.892 121.614 214.381 121.841C213.869 122.068 213.275 122.182 212.597 122.182C211.706 122.182 210.97 121.989 210.386 121.602C209.803 121.216 209.434 120.652 209.278 119.909L210.551 119.591C210.672 120.061 210.902 120.413 211.239 120.648C211.58 120.883 212.025 121 212.574 121C213.199 121 213.695 120.867 214.062 120.602C214.434 120.333 214.619 120.011 214.619 119.636C214.619 119.333 214.513 119.08 214.301 118.875C214.089 118.667 213.763 118.511 213.324 118.409L211.869 118.068C211.07 117.879 210.483 117.585 210.108 117.188C209.737 116.786 209.551 116.284 209.551 115.682C209.551 115.189 209.689 114.754 209.966 114.375C210.246 113.996 210.627 113.699 211.108 113.483C211.593 113.267 212.142 113.159 212.756 113.159C213.619 113.159 214.297 113.348 214.79 113.727C215.286 114.106 215.638 114.606 215.847 115.227ZM224.206 115.227L223.001 115.568C222.926 115.367 222.814 115.172 222.666 114.983C222.522 114.79 222.325 114.631 222.075 114.506C221.825 114.381 221.505 114.318 221.115 114.318C220.581 114.318 220.136 114.441 219.78 114.688C219.428 114.93 219.251 115.239 219.251 115.614C219.251 115.947 219.373 116.21 219.615 116.403C219.857 116.597 220.236 116.758 220.751 116.886L222.047 117.205C222.827 117.394 223.409 117.684 223.791 118.074C224.174 118.46 224.365 118.958 224.365 119.568C224.365 120.068 224.221 120.515 223.933 120.909C223.649 121.303 223.251 121.614 222.74 121.841C222.229 122.068 221.634 122.182 220.956 122.182C220.066 122.182 219.329 121.989 218.746 121.602C218.162 121.216 217.793 120.652 217.638 119.909L218.911 119.591C219.032 120.061 219.261 120.413 219.598 120.648C219.939 120.883 220.384 121 220.933 121C221.558 121 222.054 120.867 222.422 120.602C222.793 120.333 222.979 120.011 222.979 119.636C222.979 119.333 222.873 119.08 222.661 118.875C222.448 118.667 222.123 118.511 221.683 118.409L220.229 118.068C219.429 117.879 218.842 117.585 218.467 117.188C218.096 116.786 217.911 116.284 217.911 115.682C217.911 115.189 218.049 114.754 218.325 114.375C218.606 113.996 218.986 113.699 219.467 113.483C219.952 113.267 220.501 113.159 221.115 113.159C221.979 113.159 222.657 113.348 223.149 113.727C223.645 114.106 223.998 114.606 224.206 115.227Z" fill="black"/>
<rect x="356" y="126" width="54" height="40" rx="10" fill="#00A2FF"/>
<path d="M373 154.792V138L392.921 146.396L373 154.792ZM374.292 152.854L389.598 146.396L374.292 139.938V144.956L380.551 146.396L374.292 147.836V152.854Z" fill="#F8F8F8"/>
</svg>
