<svg width="1376" height="616" viewBox="0 0 1376 616" fill="none" xmlns="http://www.w3.org/2000/svg">
<path d="M342.862 237.446C342.862 237.446 343.269 244.423 349.424 250.575C355.58 256.73 362.553 257.141 362.553 257.141L365.837 253.858C368.448 251.246 369.916 247.704 369.916 244.011C369.916 240.317 368.448 236.775 365.837 234.163C363.225 231.551 359.683 230.084 355.989 230.084C352.295 230.084 348.753 231.551 346.141 234.163L342.858 237.446L334.5 245.804M362.553 257.138L343.924 275.774L332.942 286.75L332.375 287.32C330.328 289.363 329.304 290.387 328.178 291.265C326.849 292.303 325.411 293.192 323.889 293.918C322.6 294.531 321.229 294.988 318.484 295.901L306.864 299.776M306.864 299.776L304.024 300.725C303.362 300.947 302.651 300.98 301.971 300.82C301.291 300.66 300.67 300.314 300.176 299.82C299.682 299.326 299.336 298.705 299.176 298.025C299.016 297.345 299.049 296.634 299.271 295.972L300.22 293.132M306.864 299.776L300.22 293.132M300.22 293.132L304.095 281.512C305.008 278.767 305.465 277.396 306.078 276.107C306.804 274.584 307.693 273.146 308.731 271.818C309.609 270.692 310.633 269.668 312.676 267.625L322.104 258.2" stroke="#04A3FF" stroke-width="1.5" stroke-linecap="round"/>
<path d="M141.145 165.213V150.854H131.228C129.913 150.854 128.652 150.331 127.722 149.401C126.792 148.471 126.27 147.21 126.27 145.895V111.187C126.27 109.872 126.792 108.611 127.722 107.681C128.652 106.751 129.913 106.229 131.228 106.229H185.77C187.085 106.229 188.346 106.751 189.276 107.681C190.205 108.611 190.728 109.872 190.728 111.187V145.895C190.728 147.21 190.205 148.471 189.276 149.401C188.346 150.331 187.085 150.854 185.77 150.854H158.499L143.262 166.09C143.088 166.264 142.867 166.383 142.627 166.431C142.386 166.479 142.136 166.454 141.909 166.36C141.683 166.266 141.489 166.107 141.353 165.903C141.217 165.698 141.144 165.458 141.145 165.213Z" stroke="#04A3FF" stroke-width="5"/>
<path d="M141.145 135.979H175.853M141.145 121.104H175.853" stroke="#04A3FF" stroke-width="5" stroke-linecap="round"/>
<g clip-path="url(#clip0_2986_49)">
<path d="M654.375 532.125C655.469 532.125 656.518 532.56 657.292 533.333C658.065 534.107 658.5 535.156 658.5 536.25V585.75C658.5 586.844 658.065 587.893 657.292 588.667C656.518 589.44 655.469 589.875 654.375 589.875H629.625C628.531 589.875 627.482 589.44 626.708 588.667C625.935 587.893 625.5 586.844 625.5 585.75V536.25C625.5 535.156 625.935 534.107 626.708 533.333C627.482 532.56 628.531 532.125 629.625 532.125H654.375ZM629.625 528C627.437 528 625.339 528.869 623.791 530.416C622.244 531.964 621.375 534.062 621.375 536.25V585.75C621.375 587.938 622.244 590.036 623.791 591.584C625.339 593.131 627.437 594 629.625 594H654.375C656.563 594 658.661 593.131 660.209 591.584C661.756 590.036 662.625 587.938 662.625 585.75V536.25C662.625 534.062 661.756 531.964 660.209 530.416C658.661 528.869 656.563 528 654.375 528H629.625Z" fill="#04A3FF"/>
<path d="M642 585.75C643.094 585.75 644.143 585.315 644.917 584.542C645.69 583.768 646.125 582.719 646.125 581.625C646.125 580.531 645.69 579.482 644.917 578.708C644.143 577.935 643.094 577.5 642 577.5C640.906 577.5 639.857 577.935 639.083 578.708C638.31 579.482 637.875 580.531 637.875 581.625C637.875 582.719 638.31 583.768 639.083 584.542C639.857 585.315 640.906 585.75 642 585.75Z" fill="#04A3FF"/>
</g>
<path d="M1141.33 429.875C1139.83 429.875 1138.54 429.341 1137.48 428.272C1136.41 427.205 1135.87 425.923 1135.87 424.424V414.688H1139.25V424.424C1139.25 425.03 1139.44 425.527 1139.83 425.916C1140.22 426.305 1140.72 426.5 1141.33 426.5H1177.67C1178.28 426.5 1178.78 426.305 1179.17 425.916C1179.56 425.527 1179.75 425.03 1179.75 424.424V414.688H1183.12V424.424C1183.12 425.923 1182.59 427.205 1181.52 428.272C1180.46 429.341 1179.17 429.875 1177.67 429.875H1141.33ZM1135.87 397.812V374.576C1135.87 373.077 1136.41 371.795 1137.48 370.728C1138.54 369.659 1139.83 369.125 1141.33 369.125H1167.94L1183.12 384.312V397.812H1179.75V386H1166.25V372.5H1141.33C1140.72 372.5 1140.22 372.695 1139.83 373.084C1139.44 373.473 1139.25 373.97 1139.25 374.576V397.812H1135.87ZM1124.32 407.938V404.562H1194.68V407.938H1124.32Z" fill="#04A3FF"/>
<path d="M130.694 312.125H115.528C114.137 312.125 113 313.264 113 314.656V370.344C113 371.736 114.137 372.875 115.528 372.875H130.694C132.085 372.875 133.222 371.736 133.222 370.344V314.656C133.222 313.264 132.085 312.125 130.694 312.125ZM128.167 327.312H118.056V322.25H128.167V327.312ZM155.972 312.125H140.806C139.415 312.125 138.278 313.264 138.278 314.656V370.344C138.278 371.736 139.415 372.875 140.806 372.875H155.972C157.362 372.875 158.5 371.736 158.5 370.344V314.656C158.5 313.264 157.362 312.125 155.972 312.125ZM153.444 327.312H143.333V322.25H153.444V327.312Z" fill="#04A3FF"/>
<path d="M173.436 316.038L159.892 322.873C159.295 323.176 158.843 323.704 158.632 324.34C158.422 324.976 158.471 325.67 158.769 326.27L181.519 371.478C181.823 372.075 182.349 372.528 182.984 372.739C183.62 372.949 184.312 372.9 184.912 372.602L198.455 365.767C199.052 365.464 199.505 364.936 199.715 364.3C199.925 363.664 199.876 362.97 199.578 362.37L176.828 317.162C176.525 316.565 175.998 316.112 175.363 315.901C174.727 315.691 174.035 315.74 173.436 316.038Z" fill="#04A3FF"/>
<path d="M186.306 370.344C186.306 371.015 186.039 371.659 185.565 372.134C185.091 372.608 184.448 372.875 183.778 372.875C183.107 372.875 182.464 372.608 181.99 372.134C181.516 371.659 181.25 371.015 181.25 370.344C181.25 369.672 181.516 369.029 181.99 368.554C182.464 368.079 183.107 367.812 183.778 367.812C184.448 367.812 185.091 368.079 185.565 368.554C186.039 369.029 186.306 369.672 186.306 370.344Z" fill="#04A3FF"/>
<path d="M645.676 507.063C612.736 463.28 368.873 140.657 257.615 36.6912C254.352 33.6423 257.965 27.6953 262.212 29.0743C322.317 48.5873 499.14 102.323 649.385 111.293C847.366 123.113 1147.28 45.7623 1218.8 26.3457C1222.83 25.2495 1225.6 29.8757 1222.35 32.5035C1127.27 109.253 756.326 321.587 652.355 506.585C650.922 509.136 647.436 509.401 645.676 507.063Z" fill="url(#paint0_linear_2986_49)"/>
<path d="M510.298 174.251C513.519 172.461 513.102 165.562 509.369 158.832C507.768 155.934 505.799 153.587 503.83 151.946C501.476 153.693 498.624 154.641 495.693 154.65C492.757 154.644 489.9 153.696 487.542 151.946C485.573 153.587 483.61 155.936 482.003 158.832C478.268 165.56 477.856 172.461 481.085 174.251C482.523 175.07 484.04 174.456 485.605 172.949C485.312 174.572 485.165 176.219 485.167 177.868C485.167 185.58 488.159 191.812 491.842 191.812C494.063 191.812 495.163 189.542 495.69 186.069C496.215 189.518 497.318 191.812 499.523 191.812C503.19 191.812 506.206 185.578 506.206 177.868C506.206 176.136 506.043 174.482 505.765 172.952C507.34 174.461 508.852 175.086 510.296 174.256L510.298 174.251ZM495.688 152.025C497.177 152.047 498.656 151.773 500.038 151.218C501.421 150.664 502.679 149.84 503.74 148.794C504.801 147.749 505.643 146.502 506.218 145.128C506.792 143.754 507.088 142.279 507.088 140.79C507.087 139.3 506.79 137.826 506.215 136.452C505.639 135.078 504.796 133.833 503.734 132.788C502.672 131.743 501.414 130.92 500.031 130.366C498.648 129.813 497.169 129.54 495.68 129.563C492.731 129.609 489.918 130.813 487.85 132.915C485.781 135.017 484.622 137.849 484.623 140.798C484.624 143.747 485.785 146.578 487.855 148.678C489.925 150.779 492.739 151.981 495.688 152.025ZM518.247 159.149C520.646 159.079 522.923 158.077 524.594 156.356C526.266 154.634 527.202 152.329 527.202 149.929C527.202 147.529 526.266 145.224 524.594 143.502C522.923 141.781 520.646 140.779 518.247 140.709C515.801 140.709 513.455 141.681 511.726 143.411C509.996 145.141 509.025 147.487 509.025 149.933C509.026 152.379 509.998 154.725 511.727 156.454C513.457 158.184 515.803 159.155 518.249 159.155L518.247 159.149ZM529.482 164.741C528.164 162.357 526.552 160.43 524.935 159.084C523.001 160.517 520.659 161.294 518.252 161.302C516.268 161.302 514.42 160.758 512.803 159.858C514.105 162.727 514.91 165.633 515.06 168.232C515.307 172.211 514.063 175.162 511.574 176.54C511.041 176.833 510.461 177.032 509.86 177.128C509.71 178.157 509.608 179.228 509.608 180.357C509.608 186.691 512.062 191.807 515.089 191.807C516.911 191.807 517.819 189.943 518.249 187.092C518.677 189.927 519.583 191.807 521.399 191.807C524.405 191.807 526.886 186.688 526.886 180.362C526.886 178.937 526.747 177.579 526.518 176.319C527.81 177.561 529.054 178.073 530.24 177.39C532.884 175.92 532.543 170.256 529.479 164.738L529.482 164.741ZM473.128 159.149C474.951 159.148 476.733 158.607 478.249 157.593C479.764 156.579 480.945 155.139 481.642 153.455C482.339 151.77 482.521 149.916 482.164 148.129C481.808 146.341 480.93 144.698 479.64 143.41C478.351 142.121 476.708 141.243 474.92 140.888C473.131 140.533 471.278 140.716 469.594 141.414C467.91 142.111 466.47 143.293 465.457 144.809C464.445 146.325 463.904 148.107 463.904 149.93C463.905 152.376 464.877 154.722 466.607 156.452C468.336 158.182 470.682 159.154 473.128 159.155V159.149ZM479.783 176.532C475.604 174.209 475.22 167.282 478.586 159.853C476.922 160.797 475.044 161.297 473.131 161.304C470.621 161.304 468.322 160.464 466.437 159.084C464.823 160.428 463.214 162.354 461.891 164.735C458.827 170.258 458.491 175.923 461.137 177.388C462.319 178.065 463.565 177.558 464.849 176.322C464.613 177.655 464.495 179.006 464.495 180.359C464.495 186.691 466.949 191.804 469.976 191.804C471.797 191.804 472.706 189.941 473.136 187.092C473.569 189.927 474.475 191.807 476.286 191.807C479.297 191.807 481.772 186.688 481.772 180.362C481.772 179.225 481.667 178.152 481.518 177.123C480.91 177.027 480.324 176.826 479.785 176.529L479.783 176.532Z" fill="white"/>
<path d="M895.922 153.394C893.566 155.141 890.712 156.089 887.779 156.098C884.726 156.098 881.925 155.074 879.633 153.394C877.665 155.035 875.701 157.384 874.095 160.279C870.359 167.007 869.947 173.908 873.176 175.699C874.614 176.517 876.132 175.903 877.696 174.396C877.403 176.02 877.257 177.666 877.258 179.316C877.258 187.028 880.25 193.26 883.933 193.26C886.154 193.26 887.254 190.989 887.781 187.516C888.306 190.966 889.409 193.26 891.614 193.26C895.281 193.26 898.297 187.025 898.297 179.316C898.297 177.583 898.134 175.93 897.856 174.399C899.431 175.909 900.943 176.533 902.387 175.704C905.608 173.914 905.19 167.015 901.458 160.285C899.856 157.387 897.888 155.04 895.919 153.399L895.922 153.394ZM887.776 153.473C889.252 153.472 890.713 153.181 892.076 152.616C893.439 152.051 894.677 151.223 895.72 150.179C896.763 149.135 897.591 147.896 898.155 146.533C898.719 145.169 899.009 143.708 899.009 142.232C899.008 140.757 898.717 139.296 898.152 137.933C897.587 136.57 896.759 135.331 895.715 134.288C894.671 133.245 893.432 132.418 892.069 131.854C890.705 131.29 889.244 130.999 887.768 131C884.788 131.001 881.929 132.186 879.822 134.295C877.715 136.403 876.532 139.262 876.533 142.243C876.534 145.224 877.72 148.082 879.828 150.189C881.936 152.296 884.795 153.479 887.776 153.478V153.473ZM915.777 167.831C919.736 167.831 922.949 164.618 922.949 160.655C922.949 156.691 919.73 153.473 915.774 153.473C913.87 153.473 912.044 154.23 910.697 155.577C909.35 156.924 908.593 158.75 908.592 160.655C908.594 162.559 909.351 164.385 910.699 165.732C912.046 167.078 913.873 167.831 915.777 167.831ZM924.518 172.181C923.495 170.33 922.24 168.829 920.98 167.779C919.51 168.855 917.725 169.511 915.774 169.511C913.821 169.511 912.031 168.855 910.569 167.779C909.309 168.829 908.054 170.33 907.025 172.181C904.637 176.481 904.374 180.891 906.437 182.035C907.356 182.56 908.327 182.167 909.325 181.206C909.142 182.243 909.051 183.295 909.052 184.348C909.052 189.283 910.963 193.265 913.317 193.265C914.735 193.265 915.444 191.813 915.78 189.595C916.116 191.8 916.819 193.262 918.231 193.262C920.576 193.262 922.502 189.278 922.502 184.348C922.502 183.245 922.397 182.185 922.219 181.208C923.224 182.172 924.193 182.573 925.117 182.041C927.17 180.901 926.902 176.489 924.518 172.189V172.181Z" fill="white"/>
<g clip-path="url(#clip1_2986_49)">
<path d="M1051.3 203.875C1051.3 201.256 1050.27 198.744 1048.43 196.892C1046.59 195.04 1044.1 194 1041.5 194C1038.9 194 1036.41 195.04 1034.57 196.892C1032.73 198.744 1031.7 201.256 1031.7 203.875C1031.7 206.494 1032.73 209.006 1034.57 210.858C1036.41 212.71 1038.9 213.75 1041.5 213.75C1044.1 213.75 1046.59 212.71 1048.43 210.858C1050.27 209.006 1051.3 206.494 1051.3 203.875ZM1030.48 255.719V268.062C1030.48 270.794 1032.67 273 1035.38 273C1038.09 273 1040.28 270.794 1040.28 268.062V255.719H1042.73V268.062C1042.73 270.794 1044.92 273 1047.63 273C1050.34 273 1052.53 270.794 1052.53 268.062V255.719H1055.25C1056.92 255.719 1058.1 254.068 1057.58 252.463L1052.82 238.052L1057.2 243.884C1058.83 246.06 1061.91 246.476 1064.06 244.841C1066.2 243.205 1066.63 240.104 1065.01 237.928L1055.99 225.939C1052.56 221.372 1047.18 218.688 1041.5 218.688C1035.82 218.688 1030.45 221.372 1027.02 225.939L1018 237.928C1016.36 240.104 1016.79 243.205 1018.95 244.841C1021.1 246.476 1024.18 246.06 1025.81 243.884L1030.2 238.052L1025.42 252.463C1024.9 254.068 1026.08 255.719 1027.75 255.719H1030.48Z" fill="#04A3FF"/>
</g>
<path d="M191.016 502.225C187.827 503.873 186.577 507.795 188.225 510.984C189.873 514.173 193.795 515.423 196.984 513.775L191.016 502.225ZM602.327 297L606.345 291.891L603.058 289.306L599.343 291.225L602.327 297ZM839.452 483.5L835.433 488.609L839.414 491.74L843.423 488.646L839.452 483.5ZM1326 108L1251.61 118.004L1297.47 177.422L1326 108ZM196.984 513.775L605.311 302.775L599.343 291.225L191.016 502.225L196.984 513.775ZM598.308 302.109L835.433 488.609L843.47 478.391L606.345 291.891L598.308 302.109ZM843.423 488.646L1283.66 148.887L1275.72 138.596L835.48 478.354L843.423 488.646Z" fill="url(#paint1_linear_2986_49)"/>
<path d="M719.376 67.2083V42.7708L687.501 60.125L648.543 38.875L687.501 17.625L726.46 38.875V67.2083H719.376ZM687.501 81.375L662.71 67.9167V50.2083L687.501 63.6667L712.293 50.2083V67.9167L687.501 81.375Z" fill="#04A3FF"/>
<path d="M681.424 282.1C681.965 282.937 682.917 283.495 684 283.495C685.082 283.495 686.034 282.937 686.592 282.1L704.671 254.177C707.1 250.42 708.511 246.285 708.511 241.495C708.494 227.648 697.617 217 684 217C670.382 217 659.505 227.648 659.505 241.495C659.505 246.285 660.916 250.42 663.344 254.177L681.424 282.1ZM684 227.5C691.727 227.5 697.994 233.767 697.994 241.495C697.994 249.222 691.727 255.489 684 255.489C676.272 255.489 670.005 249.222 670.005 241.495C670.005 233.767 676.272 227.5 684 227.5ZM701.948 270.074L684 293.995L666.051 270.074C659.915 273.29 655.994 278.097 655.994 283.495C655.994 293.158 668.529 301 684 301C699.471 301 712.005 293.158 712.005 283.495C712.005 278.097 708.084 273.29 701.948 270.074Z" fill="#121127"/>
<defs>
<linearGradient id="paint0_linear_2986_49" x1="739.5" y1="22" x2="739.5" y2="512" gradientUnits="userSpaceOnUse">
<stop stop-color="#0097FF"/>
<stop offset="1" stop-color="#C9E3F5" stop-opacity="0"/>
</linearGradient>
<linearGradient id="paint1_linear_2986_49" x1="1118.88" y1="166" x2="284.567" y2="146.741" gradientUnits="userSpaceOnUse">
<stop stop-color="#00A2FF"/>
<stop offset="1" stop-color="#55C1FF" stop-opacity="0"/>
</linearGradient>
<clipPath id="clip0_2986_49">
<rect width="66" height="66" fill="white" transform="translate(609 528)"/>
</clipPath>
<clipPath id="clip1_2986_49">
<rect width="49" height="79" fill="white" transform="translate(1017 194)"/>
</clipPath>
</defs>
</svg>
