<svg width="309" height="107" viewBox="0 0 309 107" fill="none" xmlns="http://www.w3.org/2000/svg">
<g filter="url(#filter0_d_3061_73)">
<rect x="7" y="4" width="279" height="77" rx="10" fill="#F8F8F8"/>
<path d="M60.5996 34.96C62.0796 34.96 63.3729 35.2533 64.4796 35.84C65.5863 36.4267 66.4396 37.2533 67.0396 38.32C67.6529 39.3733 67.9596 40.5933 67.9596 41.98C67.9596 43.3533 67.6529 44.5733 67.0396 45.64C66.4396 46.7067 65.5796 47.5333 64.4596 48.12C63.3529 48.7067 62.0663 49 60.5996 49H55.3396V34.96H60.5996ZM60.3796 46.04C61.6729 46.04 62.6796 45.6867 63.3996 44.98C64.1196 44.2733 64.4796 43.2733 64.4796 41.98C64.4796 40.6867 64.1196 39.68 63.3996 38.96C62.6796 38.24 61.6729 37.88 60.3796 37.88H58.7596V46.04H60.3796ZM76.5109 49.14C75.1909 49.14 73.9775 48.8333 72.8709 48.22C71.7775 47.6067 70.9042 46.7533 70.2509 45.66C69.6109 44.5533 69.2909 43.3133 69.2909 41.94C69.2909 40.5667 69.6109 39.3333 70.2509 38.24C70.9042 37.1467 71.7775 36.2933 72.8709 35.68C73.9775 35.0667 75.1909 34.76 76.5109 34.76C77.8309 34.76 79.0375 35.0667 80.1309 35.68C81.2375 36.2933 82.1042 37.1467 82.7309 38.24C83.3709 39.3333 83.6909 40.5667 83.6909 41.94C83.6909 43.3133 83.3709 44.5533 82.7309 45.66C82.0909 46.7533 81.2242 47.6067 80.1309 48.22C79.0375 48.8333 77.8309 49.14 76.5109 49.14ZM76.5109 46.02C77.6309 46.02 78.5242 45.6467 79.1909 44.9C79.8709 44.1533 80.2109 43.1667 80.2109 41.94C80.2109 40.7 79.8709 39.7133 79.1909 38.98C78.5242 38.2333 77.6309 37.86 76.5109 37.86C75.3775 37.86 74.4709 38.2267 73.7909 38.96C73.1242 39.6933 72.7909 40.6867 72.7909 41.94C72.7909 43.18 73.1242 44.1733 73.7909 44.92C74.4709 45.6533 75.3775 46.02 76.5109 46.02ZM104.914 34.96L101.254 49H97.1135L94.8735 39.76L92.5535 49H88.4135L84.8535 34.96H88.5135L90.5335 45.18L93.0335 34.96H96.7935L99.1935 45.18L101.234 34.96H104.914ZM119.189 49H115.769L110.049 40.34V49H106.629V34.96H110.049L115.769 43.66V34.96H119.189V49ZM125.088 46.36H129.568V49H121.668V34.96H125.088V46.36ZM137.839 49.14C136.519 49.14 135.306 48.8333 134.199 48.22C133.106 47.6067 132.232 46.7533 131.579 45.66C130.939 44.5533 130.619 43.3133 130.619 41.94C130.619 40.5667 130.939 39.3333 131.579 38.24C132.232 37.1467 133.106 36.2933 134.199 35.68C135.306 35.0667 136.519 34.76 137.839 34.76C139.159 34.76 140.366 35.0667 141.459 35.68C142.566 36.2933 143.432 37.1467 144.059 38.24C144.699 39.3333 145.019 40.5667 145.019 41.94C145.019 43.3133 144.699 44.5533 144.059 45.66C143.419 46.7533 142.552 47.6067 141.459 48.22C140.366 48.8333 139.159 49.14 137.839 49.14ZM137.839 46.02C138.959 46.02 139.852 45.6467 140.519 44.9C141.199 44.1533 141.539 43.1667 141.539 41.94C141.539 40.7 141.199 39.7133 140.519 38.98C139.852 38.2333 138.959 37.86 137.839 37.86C136.706 37.86 135.799 38.2267 135.119 38.96C134.452 39.6933 134.119 40.6867 134.119 41.94C134.119 43.18 134.452 44.1733 135.119 44.92C135.799 45.6533 136.706 46.02 137.839 46.02ZM155.662 46.52H150.422L149.582 49H146.002L151.082 34.96H155.042L160.122 49H156.502L155.662 46.52ZM154.782 43.88L153.042 38.74L151.322 43.88H154.782ZM166.928 34.96C168.408 34.96 169.701 35.2533 170.808 35.84C171.914 36.4267 172.768 37.2533 173.368 38.32C173.981 39.3733 174.288 40.5933 174.288 41.98C174.288 43.3533 173.981 44.5733 173.368 45.64C172.768 46.7067 171.908 47.5333 170.788 48.12C169.681 48.7067 168.394 49 166.928 49H161.668V34.96H166.928ZM166.708 46.04C168.001 46.04 169.008 45.6867 169.728 44.98C170.448 44.2733 170.808 43.2733 170.808 41.98C170.808 40.6867 170.448 39.68 169.728 38.96C169.008 38.24 168.001 37.88 166.708 37.88H165.088V46.04H166.708ZM183.857 37.7V40.54H188.437V43.18H183.857V46.26H189.037V49H180.437V34.96H189.037V37.7H183.857ZM199.858 49L196.998 44.7L194.478 49H190.598L195.098 41.86L190.498 34.96H194.478L197.298 39.2L199.778 34.96H203.658L199.198 42.04L203.838 49H199.858ZM204.974 41.96C204.974 40.5733 205.274 39.34 205.874 38.26C206.474 37.1667 207.308 36.32 208.374 35.72C209.454 35.1067 210.674 34.8 212.034 34.8C213.701 34.8 215.128 35.24 216.314 36.12C217.501 37 218.294 38.2 218.694 39.72H214.934C214.654 39.1333 214.254 38.6867 213.734 38.38C213.228 38.0733 212.648 37.92 211.994 37.92C210.941 37.92 210.088 38.2867 209.434 39.02C208.781 39.7533 208.454 40.7333 208.454 41.96C208.454 43.1867 208.781 44.1667 209.434 44.9C210.088 45.6333 210.941 46 211.994 46C212.648 46 213.228 45.8467 213.734 45.54C214.254 45.2333 214.654 44.7867 214.934 44.2H218.694C218.294 45.72 217.501 46.92 216.314 47.8C215.128 48.6667 213.701 49.1 212.034 49.1C210.674 49.1 209.454 48.8 208.374 48.2C207.308 47.5867 206.474 46.74 205.874 45.66C205.274 44.58 204.974 43.3467 204.974 41.96ZM224.209 37.7V40.54H228.789V43.18H224.209V46.26H229.389V49H220.789V34.96H229.389V37.7H224.209ZM235.029 46.36H239.509V49H231.609V34.96H235.029V46.36Z" fill="#04A3FF"/>
</g>
<defs>
<filter id="filter0_d_3061_73" x="0.9" y="0.9" width="307.2" height="105.2" filterUnits="userSpaceOnUse" color-interpolation-filters="sRGB">
<feFlood flood-opacity="0" result="BackgroundImageFix"/>
<feColorMatrix in="SourceAlpha" type="matrix" values="0 0 0 0 0 0 0 0 0 0 0 0 0 0 0 0 0 0 127 0" result="hardAlpha"/>
<feMorphology radius="2" operator="dilate" in="SourceAlpha" result="effect1_dropShadow_3061_73"/>
<feOffset dx="8" dy="11"/>
<feGaussianBlur stdDeviation="6.05"/>
<feComposite in2="hardAlpha" operator="out"/>
<feColorMatrix type="matrix" values="0 0 0 0 0 0 0 0 0 0 0 0 0 0 0 0 0 0 0.25 0"/>
<feBlend mode="normal" in2="BackgroundImageFix" result="effect1_dropShadow_3061_73"/>
<feBlend mode="normal" in="SourceGraphic" in2="effect1_dropShadow_3061_73" result="shape"/>
</filter>
</defs>
</svg>
