<svg width="452" height="115" viewBox="0 0 452 115" fill="none" xmlns="http://www.w3.org/2000/svg">
<g filter="url(#filter0_d_3061_67)">
<rect x="8" y="5" width="422" height="85" rx="8" fill="#F8F8F8"/>
<g clip-path="url(#clip0_3061_67)">
<path fill-rule="evenodd" clip-rule="evenodd" d="M398.678 53.4284C398.233 53.8731 397.629 54.1229 397 54.1229C396.371 54.1229 395.767 53.8731 395.322 53.4284L386.363 44.473C385.918 44.0275 385.668 43.4233 385.668 42.7933C385.668 42.1634 385.919 41.5593 386.364 41.114C386.81 40.6687 387.414 40.4186 388.044 40.4187C388.674 40.4188 389.278 40.6692 389.723 41.1148L397 48.3918L404.277 41.1148C404.725 40.6819 405.325 40.4423 405.947 40.4474C406.57 40.4525 407.166 40.702 407.606 41.1421C408.047 41.5823 408.297 42.1778 408.303 42.8005C408.308 43.4233 408.069 44.0233 407.637 44.4714L398.68 53.4299L398.678 53.4284Z" fill="#04A3FF"/>
</g>
<path d="M54.5941 39.556V42.57H50.5021V55H46.7401V42.57H42.6481V39.556H54.5941ZM60.2442 42.57V45.694H65.2822V48.598H60.2442V51.986H65.9422V55H56.4822V39.556H65.9422V42.57H60.2442ZM77.9985 52.272H72.2345L71.3105 55H67.3725L72.9605 39.556H77.3165L82.9045 55H78.9225L77.9985 52.272ZM77.0305 49.368L75.1165 43.714L73.2245 49.368H77.0305ZM83.9672 47.256C83.9672 45.7307 84.2972 44.374 84.9572 43.186C85.6172 41.9833 86.5339 41.052 87.7072 40.392C88.8952 39.7173 90.2372 39.38 91.7332 39.38C93.5665 39.38 95.1359 39.864 96.4412 40.832C97.7465 41.8 98.6192 43.12 99.0592 44.792H94.9232C94.6152 44.1467 94.1752 43.6553 93.6032 43.318C93.0459 42.9807 92.4079 42.812 91.6892 42.812C90.5305 42.812 89.5919 43.2153 88.8732 44.022C88.1545 44.8287 87.7952 45.9067 87.7952 47.256C87.7952 48.6053 88.1545 49.6833 88.8732 50.49C89.5919 51.2967 90.5305 51.7 91.6892 51.7C92.4079 51.7 93.0459 51.5313 93.6032 51.194C94.1752 50.8567 94.6152 50.3653 94.9232 49.72H99.0592C98.6192 51.392 97.7465 52.712 96.4412 53.68C95.1359 54.6333 93.5665 55.11 91.7332 55.11C90.2372 55.11 88.8952 54.78 87.7072 54.12C86.5339 53.4453 85.6172 52.514 84.9572 51.326C84.2972 50.138 83.9672 48.7813 83.9672 47.256ZM114.739 39.556V55H110.977V48.642H105.125V55H101.363V39.556H105.125V45.606H110.977V39.556H114.739ZM121.217 42.57V45.694H126.255V48.598H121.217V51.986H126.915V55H117.455V39.556H126.915V42.57H121.217ZM137.233 55L134.021 49.17H133.119V55H129.357V39.556H135.671C136.888 39.556 137.922 39.7687 138.773 40.194C139.638 40.6193 140.284 41.206 140.709 41.954C141.134 42.6873 141.347 43.5087 141.347 44.418C141.347 45.4447 141.054 46.3613 140.467 47.168C139.895 47.9747 139.044 48.5467 137.915 48.884L141.479 55H137.233ZM133.119 46.508H135.451C136.14 46.508 136.654 46.3393 136.991 46.002C137.343 45.6647 137.519 45.188 137.519 44.572C137.519 43.9853 137.343 43.5233 136.991 43.186C136.654 42.8487 136.14 42.68 135.451 42.68H133.119V46.508ZM149.297 55.154C148.167 55.154 147.155 54.9707 146.261 54.604C145.366 54.2373 144.647 53.6947 144.105 52.976C143.577 52.2573 143.298 51.392 143.269 50.38H147.273C147.331 50.952 147.529 51.392 147.867 51.7C148.204 51.9933 148.644 52.14 149.187 52.14C149.744 52.14 150.184 52.0153 150.507 51.766C150.829 51.502 150.991 51.1427 150.991 50.688C150.991 50.3067 150.859 49.9913 150.595 49.742C150.345 49.4927 150.03 49.2873 149.649 49.126C149.282 48.9647 148.754 48.7813 148.065 48.576C147.067 48.268 146.253 47.96 145.623 47.652C144.992 47.344 144.449 46.8893 143.995 46.288C143.54 45.6867 143.313 44.902 143.313 43.934C143.313 42.4967 143.833 41.3747 144.875 40.568C145.916 39.7467 147.273 39.336 148.945 39.336C150.646 39.336 152.017 39.7467 153.059 40.568C154.1 41.3747 154.657 42.504 154.731 43.956H150.661C150.631 43.4573 150.448 43.0687 150.111 42.79C149.773 42.4967 149.341 42.35 148.813 42.35C148.358 42.35 147.991 42.4747 147.713 42.724C147.434 42.9587 147.295 43.3033 147.295 43.758C147.295 44.2567 147.529 44.6453 147.999 44.924C148.468 45.2027 149.201 45.5033 150.199 45.826C151.196 46.1633 152.003 46.486 152.619 46.794C153.249 47.102 153.792 47.5493 154.247 48.136C154.701 48.7227 154.929 49.478 154.929 50.402C154.929 51.282 154.701 52.0813 154.247 52.8C153.807 53.5187 153.161 54.0907 152.311 54.516C151.46 54.9413 150.455 55.154 149.297 55.154Z" fill="#04A3FF"/>
</g>
<defs>
<filter id="filter0_d_3061_67" x="0.9" y="0.9" width="450.2" height="113.2" filterUnits="userSpaceOnUse" color-interpolation-filters="sRGB">
<feFlood flood-opacity="0" result="BackgroundImageFix"/>
<feColorMatrix in="SourceAlpha" type="matrix" values="0 0 0 0 0 0 0 0 0 0 0 0 0 0 0 0 0 0 127 0" result="hardAlpha"/>
<feMorphology radius="2" operator="dilate" in="SourceAlpha" result="effect1_dropShadow_3061_67"/>
<feOffset dx="7" dy="10"/>
<feGaussianBlur stdDeviation="6.05"/>
<feComposite in2="hardAlpha" operator="out"/>
<feColorMatrix type="matrix" values="0 0 0 0 0 0 0 0 0 0 0 0 0 0 0 0 0 0 0.22 0"/>
<feBlend mode="normal" in2="BackgroundImageFix" result="effect1_dropShadow_3061_67"/>
<feBlend mode="normal" in="SourceGraphic" in2="effect1_dropShadow_3061_67" result="shape"/>
</filter>
<clipPath id="clip0_3061_67">
<rect width="38" height="38" fill="white" transform="translate(378 28)"/>
</clipPath>
</defs>
</svg>
