<svg width="400" height="94" viewBox="0 0 400 94" fill="none" xmlns="http://www.w3.org/2000/svg">
<g filter="url(#filter0_d_3061_53)">
<g clip-path="url(#clip0_3061_53)">
<rect x="27" width="370" height="64" rx="4" fill="white"/>
<path d="M55.9214 31.642C55.9214 29.6813 56.2501 28.1513 56.9074 27.052C57.5761 25.9413 58.7207 25.386 60.3414 25.386C61.9621 25.386 63.1011 25.9413 63.7584 27.052C64.4271 28.1513 64.7614 29.6813 64.7614 31.642C64.7614 33.6253 64.4271 35.178 63.7584 36.3C63.1011 37.4107 61.9621 37.966 60.3414 37.966C58.7207 37.966 57.5761 37.4107 56.9074 36.3C56.2501 35.178 55.9214 33.6253 55.9214 31.642ZM62.8574 31.642C62.8574 30.724 62.7951 29.9477 62.6704 29.313C62.5571 28.6783 62.3191 28.1627 61.9564 27.766C61.5937 27.358 61.0554 27.154 60.3414 27.154C59.6274 27.154 59.0891 27.358 58.7264 27.766C58.3637 28.1627 58.1201 28.6783 57.9954 29.313C57.8821 29.9477 57.8254 30.724 57.8254 31.642C57.8254 32.594 57.8821 33.393 57.9954 34.039C58.1087 34.685 58.3467 35.2063 58.7094 35.603C59.0834 35.9997 59.6274 36.198 60.3414 36.198C61.0554 36.198 61.5937 35.9997 61.9564 35.603C62.3304 35.2063 62.5741 34.685 62.6874 34.039C62.8007 33.393 62.8574 32.594 62.8574 31.642ZM74.666 27.103L69.94 38H67.985L72.762 27.307H66.472V25.658H74.666V27.103ZM77.3617 38.119C77.0104 38.119 76.7157 38 76.4777 37.762C76.2397 37.524 76.1207 37.2293 76.1207 36.878C76.1207 36.5267 76.2397 36.232 76.4777 35.994C76.7157 35.756 77.0104 35.637 77.3617 35.637C77.7017 35.637 77.9907 35.756 78.2287 35.994C78.4667 36.232 78.5857 36.5267 78.5857 36.878C78.5857 37.2293 78.4667 37.524 78.2287 37.762C77.9907 38 77.7017 38.119 77.3617 38.119ZM77.3617 30.979C77.0104 30.979 76.7157 30.86 76.4777 30.622C76.2397 30.384 76.1207 30.0893 76.1207 29.738C76.1207 29.3867 76.2397 29.092 76.4777 28.854C76.7157 28.616 77.0104 28.497 77.3617 28.497C77.7017 28.497 77.9907 28.616 78.2287 28.854C78.4667 29.092 78.5857 29.3867 78.5857 29.738C78.5857 30.0893 78.4667 30.384 78.2287 30.622C77.9907 30.86 77.7017 30.979 77.3617 30.979ZM80.4917 31.642C80.4917 29.6813 80.8204 28.1513 81.4777 27.052C82.1464 25.9413 83.291 25.386 84.9117 25.386C86.5324 25.386 87.6714 25.9413 88.3287 27.052C88.9974 28.1513 89.3317 29.6813 89.3317 31.642C89.3317 33.6253 88.9974 35.178 88.3287 36.3C87.6714 37.4107 86.5324 37.966 84.9117 37.966C83.291 37.966 82.1464 37.4107 81.4777 36.3C80.8204 35.178 80.4917 33.6253 80.4917 31.642ZM87.4277 31.642C87.4277 30.724 87.3654 29.9477 87.2407 29.313C87.1274 28.6783 86.8894 28.1627 86.5267 27.766C86.164 27.358 85.6257 27.154 84.9117 27.154C84.1977 27.154 83.6594 27.358 83.2967 27.766C82.934 28.1627 82.6904 28.6783 82.5657 29.313C82.4524 29.9477 82.3957 30.724 82.3957 31.642C82.3957 32.594 82.4524 33.393 82.5657 34.039C82.679 34.685 82.917 35.2063 83.2797 35.603C83.6537 35.9997 84.1977 36.198 84.9117 36.198C85.6257 36.198 86.164 35.9997 86.5267 35.603C86.9007 35.2063 87.1444 34.685 87.2577 34.039C87.371 33.393 87.4277 32.594 87.4277 31.642ZM91.3823 31.642C91.3823 29.6813 91.711 28.1513 92.3683 27.052C93.037 25.9413 94.1817 25.386 95.8023 25.386C97.423 25.386 98.562 25.9413 99.2193 27.052C99.888 28.1513 100.222 29.6813 100.222 31.642C100.222 33.6253 99.888 35.178 99.2193 36.3C98.562 37.4107 97.423 37.966 95.8023 37.966C94.1817 37.966 93.037 37.4107 92.3683 36.3C91.711 35.178 91.3823 33.6253 91.3823 31.642ZM98.3183 31.642C98.3183 30.724 98.256 29.9477 98.1313 29.313C98.018 28.6783 97.78 28.1627 97.4173 27.766C97.0547 27.358 96.5163 27.154 95.8023 27.154C95.0883 27.154 94.55 27.358 94.1873 27.766C93.8247 28.1627 93.581 28.6783 93.4563 29.313C93.343 29.9477 93.2863 30.724 93.2863 31.642C93.2863 32.594 93.343 33.393 93.4563 34.039C93.5697 34.685 93.8077 35.2063 94.1703 35.603C94.5443 35.9997 95.0883 36.198 95.8023 36.198C96.5163 36.198 97.0547 35.9997 97.4173 35.603C97.7913 35.2063 98.035 34.685 98.1483 34.039C98.2617 33.393 98.3183 32.594 98.3183 31.642Z" fill="#111115"/>
<path d="M145.936 38.119C145.143 38.119 144.429 37.983 143.794 37.711C143.16 37.4277 142.661 37.031 142.298 36.521C141.936 36.011 141.754 35.416 141.754 34.736H143.828C143.874 35.246 144.072 35.6653 144.423 35.994C144.786 36.3227 145.29 36.487 145.936 36.487C146.605 36.487 147.126 36.3283 147.5 36.011C147.874 35.6823 148.061 35.263 148.061 34.753C148.061 34.3563 147.942 34.0333 147.704 33.784C147.478 33.5347 147.189 33.342 146.837 33.206C146.497 33.07 146.021 32.9227 145.409 32.764C144.639 32.56 144.01 32.356 143.522 32.152C143.046 31.9367 142.638 31.608 142.298 31.166C141.958 30.724 141.788 30.1347 141.788 29.398C141.788 28.718 141.958 28.123 142.298 27.613C142.638 27.103 143.114 26.712 143.726 26.44C144.338 26.168 145.047 26.032 145.851 26.032C146.996 26.032 147.931 26.321 148.656 26.899C149.393 27.4657 149.801 28.2477 149.88 29.245H147.738C147.704 28.8143 147.5 28.446 147.126 28.14C146.752 27.834 146.259 27.681 145.647 27.681C145.092 27.681 144.639 27.8227 144.287 28.106C143.936 28.3893 143.76 28.7973 143.76 29.33C143.76 29.6927 143.868 29.993 144.083 30.231C144.31 30.4577 144.593 30.639 144.933 30.775C145.273 30.911 145.738 31.0583 146.327 31.217C147.109 31.4323 147.744 31.6477 148.231 31.863C148.73 32.0783 149.149 32.4127 149.489 32.866C149.841 33.308 150.016 33.903 150.016 34.651C150.016 35.2517 149.852 35.8183 149.523 36.351C149.206 36.8837 148.736 37.3143 148.112 37.643C147.5 37.9603 146.775 38.119 145.936 38.119ZM153.085 38.119C152.734 38.119 152.439 38 152.201 37.762C151.963 37.524 151.844 37.2293 151.844 36.878C151.844 36.5267 151.963 36.232 152.201 35.994C152.439 35.756 152.734 35.637 153.085 35.637C153.425 35.637 153.714 35.756 153.952 35.994C154.19 36.232 154.309 36.5267 154.309 36.878C154.309 37.2293 154.19 37.524 153.952 37.762C153.714 38 153.425 38.119 153.085 38.119ZM168.848 26.185V38H166.91V29.908L163.306 38H161.963L158.342 29.908V38H156.404V26.185H158.495L162.643 35.45L166.774 26.185H168.848Z" fill="#111115"/>
<path d="M234.609 27.375V25.607H238.145V38H236.19V27.375H234.609ZM248.797 27.273H243.102V30.656C243.34 30.3387 243.692 30.0723 244.156 29.857C244.632 29.6417 245.137 29.534 245.669 29.534C246.621 29.534 247.392 29.738 247.981 30.146C248.582 30.554 249.007 31.0697 249.256 31.693C249.517 32.3163 249.647 32.9737 249.647 33.665C249.647 34.5037 249.483 35.2517 249.154 35.909C248.837 36.555 248.355 37.065 247.709 37.439C247.075 37.813 246.293 38 245.363 38C244.128 38 243.136 37.694 242.388 37.082C241.64 36.47 241.193 35.6597 241.045 34.651H242.932C243.057 35.1837 243.335 35.6087 243.765 35.926C244.196 36.232 244.734 36.385 245.38 36.385C246.185 36.385 246.786 36.1413 247.182 35.654C247.59 35.1667 247.794 34.5207 247.794 33.716C247.794 32.9 247.59 32.2767 247.182 31.846C246.774 31.404 246.174 31.183 245.38 31.183C244.825 31.183 244.355 31.3247 243.969 31.608C243.595 31.88 243.323 32.254 243.153 32.73H241.317V25.573H248.797V27.273ZM252.702 38.119C252.35 38.119 252.056 38 251.818 37.762C251.58 37.524 251.461 37.2293 251.461 36.878C251.461 36.5267 251.58 36.232 251.818 35.994C252.056 35.756 252.35 35.637 252.702 35.637C253.042 35.637 253.331 35.756 253.569 35.994C253.807 36.232 253.926 36.5267 253.926 36.878C253.926 37.2293 253.807 37.524 253.569 37.762C253.331 38 253.042 38.119 252.702 38.119ZM252.702 30.979C252.35 30.979 252.056 30.86 251.818 30.622C251.58 30.384 251.461 30.0893 251.461 29.738C251.461 29.3867 251.58 29.092 251.818 28.854C252.056 28.616 252.35 28.497 252.702 28.497C253.042 28.497 253.331 28.616 253.569 28.854C253.807 29.092 253.926 29.3867 253.926 29.738C253.926 30.0893 253.807 30.384 253.569 30.622C253.331 30.86 253.042 30.979 252.702 30.979ZM255.832 31.642C255.832 29.6813 256.16 28.1513 256.818 27.052C257.486 25.9413 258.631 25.386 260.252 25.386C261.872 25.386 263.011 25.9413 263.669 27.052C264.337 28.1513 264.672 29.6813 264.672 31.642C264.672 33.6253 264.337 35.178 263.669 36.3C263.011 37.4107 261.872 37.966 260.252 37.966C258.631 37.966 257.486 37.4107 256.818 36.3C256.16 35.178 255.832 33.6253 255.832 31.642ZM262.768 31.642C262.768 30.724 262.705 29.9477 262.581 29.313C262.467 28.6783 262.229 28.1627 261.867 27.766C261.504 27.358 260.966 27.154 260.252 27.154C259.538 27.154 258.999 27.358 258.637 27.766C258.274 28.1627 258.03 28.6783 257.906 29.313C257.792 29.9477 257.736 30.724 257.736 31.642C257.736 32.594 257.792 33.393 257.906 34.039C258.019 34.685 258.257 35.2063 258.62 35.603C258.994 35.9997 259.538 36.198 260.252 36.198C260.966 36.198 261.504 35.9997 261.867 35.603C262.241 35.2063 262.484 34.685 262.598 34.039C262.711 33.393 262.768 32.594 262.768 31.642ZM266.722 31.642C266.722 29.6813 267.051 28.1513 267.708 27.052C268.377 25.9413 269.522 25.386 271.142 25.386C272.763 25.386 273.902 25.9413 274.559 27.052C275.228 28.1513 275.562 29.6813 275.562 31.642C275.562 33.6253 275.228 35.178 274.559 36.3C273.902 37.4107 272.763 37.966 271.142 37.966C269.522 37.966 268.377 37.4107 267.708 36.3C267.051 35.178 266.722 33.6253 266.722 31.642ZM273.658 31.642C273.658 30.724 273.596 29.9477 273.471 29.313C273.358 28.6783 273.12 28.1627 272.757 27.766C272.395 27.358 271.856 27.154 271.142 27.154C270.428 27.154 269.89 27.358 269.527 27.766C269.165 28.1627 268.921 28.6783 268.796 29.313C268.683 29.9477 268.626 30.724 268.626 31.642C268.626 32.594 268.683 33.393 268.796 34.039C268.91 34.685 269.148 35.2063 269.51 35.603C269.884 35.9997 270.428 36.198 271.142 36.198C271.856 36.198 272.395 35.9997 272.757 35.603C273.131 35.2063 273.375 34.685 273.488 34.039C273.602 33.393 273.658 32.594 273.658 31.642Z" fill="#111115"/>
<path d="M345.485 38.119C344.692 38.119 343.978 37.983 343.343 37.711C342.709 37.4277 342.21 37.031 341.847 36.521C341.485 36.011 341.303 35.416 341.303 34.736H343.377C343.423 35.246 343.621 35.6653 343.972 35.994C344.335 36.3227 344.839 36.487 345.485 36.487C346.154 36.487 346.675 36.3283 347.049 36.011C347.423 35.6823 347.61 35.263 347.61 34.753C347.61 34.3563 347.491 34.0333 347.253 33.784C347.027 33.5347 346.738 33.342 346.386 33.206C346.046 33.07 345.57 32.9227 344.958 32.764C344.188 32.56 343.559 32.356 343.071 32.152C342.595 31.9367 342.187 31.608 341.847 31.166C341.507 30.724 341.337 30.1347 341.337 29.398C341.337 28.718 341.507 28.123 341.847 27.613C342.187 27.103 342.663 26.712 343.275 26.44C343.887 26.168 344.596 26.032 345.4 26.032C346.545 26.032 347.48 26.321 348.205 26.899C348.942 27.4657 349.35 28.2477 349.429 29.245H347.287C347.253 28.8143 347.049 28.446 346.675 28.14C346.301 27.834 345.808 27.681 345.196 27.681C344.641 27.681 344.188 27.8227 343.836 28.106C343.485 28.3893 343.309 28.7973 343.309 29.33C343.309 29.6927 343.417 29.993 343.632 30.231C343.859 30.4577 344.142 30.639 344.482 30.775C344.822 30.911 345.287 31.0583 345.876 31.217C346.658 31.4323 347.293 31.6477 347.78 31.863C348.279 32.0783 348.698 32.4127 349.038 32.866C349.39 33.308 349.565 33.903 349.565 34.651C349.565 35.2517 349.401 35.8183 349.072 36.351C348.755 36.8837 348.285 37.3143 347.661 37.643C347.049 37.9603 346.324 38.119 345.485 38.119ZM352.634 38.119C352.283 38.119 351.988 38 351.75 37.762C351.512 37.524 351.393 37.2293 351.393 36.878C351.393 36.5267 351.512 36.232 351.75 35.994C351.988 35.756 352.283 35.637 352.634 35.637C352.974 35.637 353.263 35.756 353.501 35.994C353.739 36.232 353.858 36.5267 353.858 36.878C353.858 37.2293 353.739 37.524 353.501 37.762C353.263 38 352.974 38.119 352.634 38.119ZM368.397 26.185V38H366.459V29.908L362.855 38H361.512L357.891 29.908V38H355.953V26.185H358.044L362.192 35.45L366.323 26.185H368.397Z" fill="#111115"/>
</g>
</g>
<defs>
<filter id="filter0_d_3061_53" x="0.9" y="0" width="398.2" height="93.1" filterUnits="userSpaceOnUse" color-interpolation-filters="sRGB">
<feFlood flood-opacity="0" result="BackgroundImageFix"/>
<feColorMatrix in="SourceAlpha" type="matrix" values="0 0 0 0 0 0 0 0 0 0 0 0 0 0 0 0 0 0 127 0" result="hardAlpha"/>
<feMorphology radius="2" operator="dilate" in="SourceAlpha" result="effect1_dropShadow_3061_53"/>
<feOffset dx="-12" dy="15"/>
<feGaussianBlur stdDeviation="6.05"/>
<feComposite in2="hardAlpha" operator="out"/>
<feColorMatrix type="matrix" values="0 0 0 0 0 0 0 0 0 0 0 0 0 0 0 0 0 0 0.17 0"/>
<feBlend mode="normal" in2="BackgroundImageFix" result="effect1_dropShadow_3061_53"/>
<feBlend mode="normal" in="SourceGraphic" in2="effect1_dropShadow_3061_53" result="shape"/>
</filter>
<clipPath id="clip0_3061_53">
<rect x="27" width="370" height="64" rx="4" fill="white"/>
</clipPath>
</defs>
</svg>
