<svg width="400" height="94" viewBox="0 0 400 94" fill="none" xmlns="http://www.w3.org/2000/svg">
<g filter="url(#filter0_d_3061_63)">
<rect x="27" width="370" height="64" rx="5" fill="white"/>
<path d="M179.184 33.218C179.184 32.1667 179.399 31.2357 179.83 30.425C180.273 29.6143 180.869 28.9873 181.616 28.544C182.376 28.088 183.212 27.86 184.124 27.86C184.947 27.86 185.663 28.0247 186.271 28.354C186.892 28.6707 187.386 29.0697 187.753 29.551V28.031H189.938V38.5H187.753V36.942C187.386 37.436 186.885 37.8477 186.252 38.177C185.619 38.5063 184.897 38.671 184.086 38.671C183.187 38.671 182.363 38.443 181.616 37.987C180.869 37.5183 180.273 36.8723 179.83 36.049C179.399 35.213 179.184 34.2693 179.184 33.218ZM187.753 33.256C187.753 32.534 187.601 31.907 187.297 31.375C187.006 30.843 186.619 30.4377 186.138 30.159C185.657 29.8803 185.137 29.741 184.58 29.741C184.023 29.741 183.503 29.8803 183.022 30.159C182.541 30.425 182.148 30.824 181.844 31.356C181.553 31.8753 181.407 32.496 181.407 33.218C181.407 33.94 181.553 34.5733 181.844 35.118C182.148 35.6627 182.541 36.0807 183.022 36.372C183.516 36.6507 184.035 36.79 184.58 36.79C185.137 36.79 185.657 36.6507 186.138 36.372C186.619 36.0933 187.006 35.688 187.297 35.156C187.601 34.6113 187.753 33.978 187.753 33.256ZM194.949 29.589C195.316 29.0823 195.817 28.6707 196.45 28.354C197.096 28.0247 197.812 27.86 198.597 27.86C199.522 27.86 200.358 28.0817 201.105 28.525C201.852 28.9683 202.441 29.6017 202.872 30.425C203.303 31.2357 203.518 32.1667 203.518 33.218C203.518 34.2693 203.303 35.213 202.872 36.049C202.441 36.8723 201.846 37.5183 201.086 37.987C200.339 38.443 199.509 38.671 198.597 38.671C197.786 38.671 197.064 38.5127 196.431 38.196C195.81 37.8793 195.316 37.474 194.949 36.98V38.5H192.783V24.44H194.949V29.589ZM201.314 33.218C201.314 32.496 201.162 31.8753 200.858 31.356C200.567 30.824 200.174 30.425 199.68 30.159C199.199 29.8803 198.679 29.741 198.122 29.741C197.577 29.741 197.058 29.8803 196.564 30.159C196.083 30.4377 195.69 30.843 195.386 31.375C195.095 31.907 194.949 32.534 194.949 33.256C194.949 33.978 195.095 34.6113 195.386 35.156C195.69 35.688 196.083 36.0933 196.564 36.372C197.058 36.6507 197.577 36.79 198.122 36.79C198.679 36.79 199.199 36.6507 199.68 36.372C200.174 36.0807 200.567 35.6627 200.858 35.118C201.162 34.5733 201.314 33.94 201.314 33.218ZM209.46 38.671C208.637 38.671 207.896 38.5253 207.237 38.234C206.591 37.93 206.078 37.5247 205.698 37.018C205.318 36.4987 205.115 35.9223 205.09 35.289H207.332C207.37 35.7323 207.579 36.106 207.959 36.41C208.352 36.7013 208.839 36.847 209.422 36.847C210.03 36.847 210.499 36.733 210.828 36.505C211.17 36.2643 211.341 35.9603 211.341 35.593C211.341 35.2003 211.151 34.909 210.771 34.719C210.404 34.529 209.815 34.32 209.004 34.092C208.219 33.8767 207.579 33.6677 207.085 33.465C206.591 33.2623 206.16 32.952 205.793 32.534C205.438 32.116 205.261 31.565 205.261 30.881C205.261 30.3237 205.426 29.817 205.755 29.361C206.084 28.8923 206.553 28.525 207.161 28.259C207.782 27.993 208.491 27.86 209.289 27.86C210.48 27.86 211.436 28.164 212.158 28.772C212.893 29.3673 213.285 30.1843 213.336 31.223H211.17C211.132 30.7543 210.942 30.3807 210.6 30.102C210.258 29.8233 209.796 29.684 209.213 29.684C208.643 29.684 208.206 29.7917 207.902 30.007C207.598 30.2223 207.446 30.5073 207.446 30.862C207.446 31.1407 207.547 31.375 207.75 31.565C207.953 31.755 208.2 31.907 208.491 32.021C208.782 32.1223 209.213 32.2553 209.783 32.42C210.543 32.6227 211.164 32.8317 211.645 33.047C212.139 33.2497 212.563 33.5537 212.918 33.959C213.273 34.3643 213.456 34.9027 213.469 35.574C213.469 36.1693 213.304 36.7013 212.975 37.17C212.646 37.6387 212.177 38.006 211.569 38.272C210.974 38.538 210.271 38.671 209.46 38.671ZM225.404 33.009C225.404 33.4017 225.379 33.7563 225.328 34.073H217.329C217.393 34.909 217.703 35.5803 218.26 36.087C218.818 36.5937 219.502 36.847 220.312 36.847C221.478 36.847 222.301 36.3593 222.782 35.384H225.119C224.803 36.3467 224.226 37.1383 223.39 37.759C222.567 38.367 221.541 38.671 220.312 38.671C219.312 38.671 218.412 38.4493 217.614 38.006C216.829 37.55 216.208 36.9167 215.752 36.106C215.309 35.2827 215.087 34.3327 215.087 33.256C215.087 32.1793 215.303 31.2357 215.733 30.425C216.177 29.6017 216.791 28.9683 217.576 28.525C218.374 28.0817 219.286 27.86 220.312 27.86C221.3 27.86 222.181 28.0753 222.953 28.506C223.726 28.9367 224.328 29.5447 224.758 30.33C225.189 31.1027 225.404 31.9957 225.404 33.009ZM223.143 32.325C223.131 31.527 222.846 30.8873 222.288 30.406C221.731 29.9247 221.041 29.684 220.217 29.684C219.47 29.684 218.83 29.9247 218.298 30.406C217.766 30.8747 217.45 31.5143 217.348 32.325H223.143ZM232.818 27.86C233.641 27.86 234.376 28.031 235.022 28.373C235.681 28.715 236.194 29.2217 236.561 29.893C236.928 30.5643 237.112 31.375 237.112 32.325V38.5H234.965V32.648C234.965 31.7107 234.731 30.995 234.262 30.501C233.793 29.9943 233.154 29.741 232.343 29.741C231.532 29.741 230.886 29.9943 230.405 30.501C229.936 30.995 229.702 31.7107 229.702 32.648V38.5H227.536V28.031H229.702V29.228C230.057 28.7973 230.506 28.4617 231.051 28.221C231.608 27.9803 232.197 27.86 232.818 27.86ZM242.402 29.798V35.593C242.402 35.9857 242.49 36.2707 242.668 36.448C242.858 36.6127 243.174 36.695 243.618 36.695H244.948V38.5H243.238C242.262 38.5 241.515 38.272 240.996 37.816C240.476 37.36 240.217 36.619 240.217 35.593V29.798H238.982V28.031H240.217V25.428H242.402V28.031H244.948V29.798H242.402Z" fill="#FF2B2B"/>
</g>
<defs>
<filter id="filter0_d_3061_63" x="0.9" y="0" width="398.2" height="93.1" filterUnits="userSpaceOnUse" color-interpolation-filters="sRGB">
<feFlood flood-opacity="0" result="BackgroundImageFix"/>
<feColorMatrix in="SourceAlpha" type="matrix" values="0 0 0 0 0 0 0 0 0 0 0 0 0 0 0 0 0 0 127 0" result="hardAlpha"/>
<feMorphology radius="2" operator="dilate" in="SourceAlpha" result="effect1_dropShadow_3061_63"/>
<feOffset dx="-12" dy="15"/>
<feGaussianBlur stdDeviation="6.05"/>
<feComposite in2="hardAlpha" operator="out"/>
<feColorMatrix type="matrix" values="0 0 0 0 0 0 0 0 0 0 0 0 0 0 0 0 0 0 0.17 0"/>
<feBlend mode="normal" in2="BackgroundImageFix" result="effect1_dropShadow_3061_63"/>
<feBlend mode="normal" in="SourceGraphic" in2="effect1_dropShadow_3061_63" result="shape"/>
</filter>
</defs>
</svg>
