<svg width="400" height="94" viewBox="0 0 400 94" fill="none" xmlns="http://www.w3.org/2000/svg">
<g filter="url(#filter0_d_3061_60)">
<g clip-path="url(#clip0_3061_60)">
<rect x="27" width="370" height="64" rx="6" fill="white"/>
<path d="M172.335 26.185V27.766H169.19V38H167.252V27.766H164.09V26.185H172.335ZM182.78 28.633V38H180.842V36.895C180.536 37.2803 180.134 37.5863 179.635 37.813C179.148 38.0283 178.627 38.136 178.071 38.136C177.335 38.136 176.672 37.983 176.082 37.677C175.504 37.371 175.045 36.9177 174.705 36.317C174.377 35.7163 174.212 34.991 174.212 34.141V28.633H176.133V33.852C176.133 34.6907 176.343 35.3367 176.762 35.79C177.182 36.232 177.754 36.453 178.479 36.453C179.205 36.453 179.777 36.232 180.196 35.79C180.627 35.3367 180.842 34.6907 180.842 33.852V28.633H182.78ZM193.923 33.087C193.923 33.4383 193.9 33.7557 193.855 34.039H186.698C186.754 34.787 187.032 35.3877 187.531 35.841C188.029 36.2943 188.641 36.521 189.367 36.521C190.409 36.521 191.146 36.0847 191.577 35.212H193.667C193.384 36.0733 192.869 36.7817 192.121 37.337C191.384 37.881 190.466 38.153 189.367 38.153C188.471 38.153 187.667 37.9547 186.953 37.558C186.25 37.15 185.695 36.5833 185.287 35.858C184.89 35.1213 184.692 34.2713 184.692 33.308C184.692 32.3447 184.884 31.5003 185.27 30.775C185.666 30.0383 186.216 29.4717 186.919 29.075C187.633 28.6783 188.449 28.48 189.367 28.48C190.251 28.48 191.038 28.6727 191.73 29.058C192.421 29.4433 192.959 29.9873 193.345 30.69C193.73 31.3813 193.923 32.1803 193.923 33.087ZM191.9 32.475C191.888 31.761 191.633 31.1887 191.135 30.758C190.636 30.3273 190.018 30.112 189.282 30.112C188.613 30.112 188.041 30.3273 187.565 30.758C187.089 31.1773 186.805 31.7497 186.715 32.475H191.9ZM199.23 38.153C198.493 38.153 197.83 38.0227 197.241 37.762C196.663 37.49 196.204 37.1273 195.864 36.674C195.524 36.2093 195.342 35.6937 195.32 35.127H197.326C197.36 35.5237 197.547 35.858 197.887 36.13C198.238 36.3907 198.674 36.521 199.196 36.521C199.74 36.521 200.159 36.419 200.454 36.215C200.76 35.9997 200.913 35.7277 200.913 35.399C200.913 35.0477 200.743 34.787 200.403 34.617C200.074 34.447 199.547 34.26 198.822 34.056C198.119 33.8633 197.547 33.6763 197.105 33.495C196.663 33.3137 196.277 33.036 195.949 32.662C195.631 32.288 195.473 31.795 195.473 31.183C195.473 30.6843 195.62 30.231 195.915 29.823C196.209 29.4037 196.629 29.075 197.173 28.837C197.728 28.599 198.363 28.48 199.077 28.48C200.142 28.48 200.998 28.752 201.644 29.296C202.301 29.8287 202.652 30.5597 202.698 31.489H200.76C200.726 31.0697 200.556 30.7353 200.25 30.486C199.944 30.2367 199.53 30.112 199.009 30.112C198.499 30.112 198.108 30.2083 197.836 30.401C197.564 30.5937 197.428 30.8487 197.428 31.166C197.428 31.4153 197.518 31.625 197.7 31.795C197.881 31.965 198.102 32.101 198.363 32.203C198.623 32.2937 199.009 32.4127 199.519 32.56C200.199 32.7413 200.754 32.9283 201.185 33.121C201.627 33.3023 202.006 33.5743 202.324 33.937C202.641 34.2997 202.805 34.7813 202.817 35.382C202.817 35.9147 202.669 36.3907 202.375 36.81C202.08 37.2293 201.661 37.558 201.117 37.796C200.584 38.034 199.955 38.153 199.23 38.153ZM204.265 33.274C204.265 32.3333 204.457 31.5003 204.843 30.775C205.239 30.0497 205.772 29.4887 206.441 29.092C207.121 28.684 207.874 28.48 208.702 28.48C209.314 28.48 209.914 28.616 210.504 28.888C211.104 29.1487 211.58 29.5 211.932 29.942V25.42H213.887V38H211.932V36.589C211.614 37.0423 211.172 37.4163 210.606 37.711C210.05 38.0057 209.41 38.153 208.685 38.153C207.869 38.153 207.121 37.949 206.441 37.541C205.772 37.1217 205.239 36.5437 204.843 35.807C204.457 35.059 204.265 34.2147 204.265 33.274ZM211.932 33.308C211.932 32.662 211.796 32.101 211.524 31.625C211.263 31.149 210.917 30.7863 210.487 30.537C210.056 30.2877 209.591 30.163 209.093 30.163C208.594 30.163 208.129 30.2877 207.699 30.537C207.268 30.775 206.917 31.132 206.645 31.608C206.384 32.0727 206.254 32.628 206.254 33.274C206.254 33.92 206.384 34.4867 206.645 34.974C206.917 35.4613 207.268 35.8353 207.699 36.096C208.141 36.3453 208.605 36.47 209.093 36.47C209.591 36.47 210.056 36.3453 210.487 36.096C210.917 35.8467 211.263 35.484 211.524 35.008C211.796 34.5207 211.932 33.954 211.932 33.308ZM215.786 33.274C215.786 32.3333 215.979 31.5003 216.364 30.775C216.761 30.0497 217.294 29.4887 217.962 29.092C218.642 28.684 219.39 28.48 220.206 28.48C220.943 28.48 221.583 28.6273 222.127 28.922C222.683 29.2053 223.125 29.5623 223.453 29.993V28.633H225.408V38H223.453V36.606C223.125 37.048 222.677 37.4163 222.11 37.711C221.544 38.0057 220.898 38.153 220.172 38.153C219.368 38.153 218.631 37.949 217.962 37.541C217.294 37.1217 216.761 36.5437 216.364 35.807C215.979 35.059 215.786 34.2147 215.786 33.274ZM223.453 33.308C223.453 32.662 223.317 32.101 223.045 31.625C222.785 31.149 222.439 30.7863 222.008 30.537C221.578 30.2877 221.113 30.163 220.614 30.163C220.116 30.163 219.651 30.2877 219.22 30.537C218.79 30.775 218.438 31.132 218.166 31.608C217.906 32.0727 217.775 32.628 217.775 33.274C217.775 33.92 217.906 34.4867 218.166 34.974C218.438 35.4613 218.79 35.8353 219.22 36.096C219.662 36.3453 220.127 36.47 220.614 36.47C221.113 36.47 221.578 36.3453 222.008 36.096C222.439 35.8467 222.785 35.484 223.045 35.008C223.317 34.5207 223.453 33.954 223.453 33.308ZM236.386 28.633L230.64 42.403H228.634L230.538 37.847L226.849 28.633H229.008L231.643 35.773L234.38 28.633H236.386Z" fill="black"/>
</g>
</g>
<defs>
<filter id="filter0_d_3061_60" x="0.9" y="0" width="398.2" height="93.1" filterUnits="userSpaceOnUse" color-interpolation-filters="sRGB">
<feFlood flood-opacity="0" result="BackgroundImageFix"/>
<feColorMatrix in="SourceAlpha" type="matrix" values="0 0 0 0 0 0 0 0 0 0 0 0 0 0 0 0 0 0 127 0" result="hardAlpha"/>
<feMorphology radius="2" operator="dilate" in="SourceAlpha" result="effect1_dropShadow_3061_60"/>
<feOffset dx="-12" dy="15"/>
<feGaussianBlur stdDeviation="6.05"/>
<feComposite in2="hardAlpha" operator="out"/>
<feColorMatrix type="matrix" values="0 0 0 0 0 0 0 0 0 0 0 0 0 0 0 0 0 0 0.17 0"/>
<feBlend mode="normal" in2="BackgroundImageFix" result="effect1_dropShadow_3061_60"/>
<feBlend mode="normal" in="SourceGraphic" in2="effect1_dropShadow_3061_60" result="shape"/>
</filter>
<clipPath id="clip0_3061_60">
<rect x="27" width="370" height="64" rx="6" fill="white"/>
</clipPath>
</defs>
</svg>
