<?xml version="1.0" standalone="no"?>
<!DOCTYPE svg PUBLIC "-//W3C//DTD SVG 20010904//EN"
 "http://www.w3.org/TR/2001/REC-SVG-20010904/DTD/svg10.dtd">
<svg version="1.0" xmlns="http://www.w3.org/2000/svg"
 width="400.000000pt" height="400.000000pt" viewBox="0 0 400.000000 400.000000"
 preserveAspectRatio="xMidYMid meet">
<metadata>
Created by potrace 1.14, written by Peter Selinger 2001-2017
</metadata>
<g transform="translate(0.000000,400.000000) scale(0.100000,-0.100000)"
fill="#000000" stroke="none">
<path d="M95 3986 c-41 -18 -83 -69 -90 -109 -3 -18 -4 -874 -3 -1904 l3
-1872 21 -27 c11 -15 33 -37 48 -48 l27 -21 1899 0 1899 0 27 21 c15 11 37 33
48 48 l21 27 0 1899 0 1899 -21 27 c-11 15 -33 37 -48 48 l-27 21 -1887 2
c-1554 2 -1892 0 -1917 -11z m1027 -1616 c48 -14 97 -55 114 -97 25 -58 21
-63 -51 -63 -43 0 -65 4 -65 12 0 26 -34 48 -72 48 -52 0 -78 -15 -78 -45 0
-35 23 -52 88 -65 121 -25 184 -72 197 -150 5 -32 2 -50 -17 -87 -33 -68 -86
-93 -190 -93 -116 0 -182 34 -214 109 -26 63 -21 71 46 71 54 0 61 -3 69 -23
14 -37 39 -51 93 -51 40 -1 53 3 68 21 21 26 16 59 -11 73 -9 6 -48 17 -86 26
-128 29 -179 78 -176 167 5 114 144 186 285 147z m1960 -260 c48 -146 88 -268
88 -273 0 -4 -33 -7 -72 -5 l-73 3 -15 53 -15 53 -79 -3 -79 -3 -23 -100 c-12
-55 -30 -135 -39 -177 l-17 -78 -70 0 c-62 0 -70 2 -66 18 3 9 47 187 99 394
l94 377 45 4 c25 2 65 3 89 3 l44 -1 89 -265z m-1472 108 c45 -23 72 -59 84
-110 l6 -28 -65 0 c-50 0 -65 3 -65 14 0 24 -29 46 -60 46 -42 0 -70 -40 -70
-102 0 -78 21 -108 78 -108 28 0 36 5 45 30 11 29 14 30 74 30 l63 0 -6 -27
c-18 -77 -61 -116 -143 -134 -96 -20 -199 32 -232 118 -24 64 -4 188 39 237
50 57 174 73 252 34z m427 3 c45 -21 70 -52 73 -91 1 -14 2 -89 1 -167 l-1
-143 -60 0 c-60 0 -60 0 -60 30 l0 29 -25 -23 c-47 -44 -146 -40 -192 7 -49
48 -37 144 22 183 13 8 57 20 97 26 95 13 116 29 82 62 -21 22 -60 20 -84 -4
-15 -15 -33 -20 -75 -20 -48 0 -55 3 -55 19 0 27 47 81 85 97 45 20 142 17
192 -5z m283 -16 c4 -23 7 -26 12 -13 20 49 152 64 199 22 41 -36 49 -74 49
-239 l0 -155 -65 0 -65 0 0 139 c0 157 -6 171 -65 171 -56 0 -65 -24 -65 -172
l0 -128 -65 0 -65 0 0 205 0 206 62 -3 c61 -3 63 -4 68 -33z"/>
<path d="M2886 2159 c-9 -41 -19 -82 -22 -91 -5 -16 2 -18 45 -18 28 0 51 1
51 3 0 1 -13 42 -29 91 l-29 89 -16 -74z"/>
<path d="M1925 1999 c-36 -9 -65 -31 -65 -50 0 -16 33 -39 56 -39 32 0 74 42
74 75 0 27 -4 28 -65 14z"/>
</g>
</svg>
